<?xml version="1.0" encoding="utf-8"?>
<!-- Generator: Adobe Illustrator 21.1.0, SVG Export Plug-In . SVG Version: 6.00 Build 0)  -->
<svg version="1.1" id="Слой_1" xmlns="http://www.w3.org/2000/svg" xmlns:xlink="http://www.w3.org/1999/xlink" x="0px" y="0px"
	 viewBox="0 0 201.4 87.9" style="enable-background:new 0 0 201.4 87.9;" xml:space="preserve">
<style type="text/css">
	.st0{fill:#0096AC;}
	.st1{fill:url(#SVGID_1_);}
	.st2{fill:url(#SVGID_2_);}
	.st3{fill:url(#SVGID_3_);}
	.st4{fill:#FFFFFF;}
	.st5{fill-rule:evenodd;clip-rule:evenodd;fill:#0096AC;}
</style>
<g>
	<path class="st0" d="M67.5,49.3v22.8L51.6,87.9H0V0h51.5l13.4,13.4v23.5l-6.6,5.2L67.5,49.3z M19.2,33.2h23.2l3.3-2.6v-9.5L42.6,18
		H19.2V33.2z M41.7,51.1H19.2V70h24.4l4.7-4.7v-9L41.7,51.1z"/>
	<linearGradient id="SVGID_1_" gradientUnits="userSpaceOnUse" x1="39.5043" y1="25.6336" x2="-4.607" y2="105.3415">
		<stop  offset="0" style="stop-color:#00FFFF;stop-opacity:0"/>
		<stop  offset="0.4387" style="stop-color:#00FFFF;stop-opacity:0.51"/>
		<stop  offset="1" style="stop-color:#00FFFF"/>
	</linearGradient>
	<path class="st1" d="M67.5,49.3v22.8L51.6,87.9H0V0h51.5l13.4,13.4v23.5l-6.6,5.2L67.5,49.3z M19.2,33.2h23.2l3.3-2.6v-9.5L42.6,18
		H19.2V33.2z M41.7,51.1H19.2V70h24.4l4.7-4.7v-9L41.7,51.1z"/>
</g>
<g>
	<path class="st0" d="M73.1,0h61.1v18H92.3v15.1h36.7v18H92.3V70h41.9v18H73.1V0z"/>
	<linearGradient id="SVGID_2_" gradientUnits="userSpaceOnUse" x1="103.4198" y1="48.0977" x2="100.854" y2="109.0965">
		<stop  offset="0" style="stop-color:#00FFFF;stop-opacity:0"/>
		<stop  offset="0.4387" style="stop-color:#00FFFF;stop-opacity:0.51"/>
		<stop  offset="1" style="stop-color:#00FFFF"/>
	</linearGradient>
	<path class="st2" d="M73.1,0h61.1v18H92.3v15.1h36.7v18H92.3V70h41.9v18H73.1V0z"/>
</g>
<g>
	<path class="st0" d="M140.3,0h61.1v18h-41.9v18.6h36.7v18h-36.7v33.4h-19.2V0z"/>
	<linearGradient id="SVGID_3_" gradientUnits="userSpaceOnUse" x1="168.3582" y1="26.7311" x2="150.1354" y2="107.4642">
		<stop  offset="0" style="stop-color:#00FFFF;stop-opacity:0"/>
		<stop  offset="0.4387" style="stop-color:#00FFFF;stop-opacity:0.51"/>
		<stop  offset="1" style="stop-color:#00FFFF"/>
	</linearGradient>
	<path class="st3" d="M140.3,0h61.1v18h-41.9v18.6h36.7v18h-36.7v33.4h-19.2V0z"/>
</g>
<g>
	<path class="st4" d="M19.2,0h5L25,65.1h23.3L43.6,70H19.2V0z"/>
</g>
<g>
	<path class="st4" d="M164.4,87.9h-5l0.1-65.1h-19.2v-4.9h61.1v4.9h-36.9L164.4,87.9z"/>
</g>
<g>
	<path class="st4" d="M96.6,70h-4.5L92.3,18h6.2l35.2,52l-5.4,0l-9-14l-22.6-0.1L96.6,70z M116,51.1L96.7,23.4l-0.1,27.6L116,51.1z"
		/>
</g>
<rect x="96.6" y="33" class="st5" width="32.4" height="18.1"/>
</svg>
