<svg id="svg2173" xmlns="http://www.w3.org/2000/svg" xml:space="preserve" version="1.1" y="0px" x="0px" xmlns:xlink="http://www.w3.org/1999/xlink" viewBox="0 0 132 132">
    <defs id="defs1594">
        <linearGradient id="SVGID_138_" y2="673.93" gradientUnits="userSpaceOnUse" y1="673.93" x2="1038" x1="942.16">
            <stop id="stop1568" stop-color="#7FFF8B" offset="0" />
            <stop id="stop1570" stop-color="#60D679" offset=".1856" />
            <stop id="stop1572" stop-color="#37A160" offset=".4588" />
            <stop id="stop1574" stop-color="#197A4F" offset=".6955" />
            <stop id="stop1576" stop-color="#076244" offset=".8838" />
            <stop id="stop1578" stop-color="#005940" offset="1" />
        </linearGradient>
        <linearGradient id="SVGID_139_" y2="664.03" gradientUnits="userSpaceOnUse" y1="664.03" x2="1038" x1="942.16">
            <stop id="stop1581" stop-color="#00B581" offset="0" />
            <stop id="stop1583" stop-color="#09BA82" offset=".1414" />
            <stop id="stop1585" stop-color="#21C884" offset=".3702" />
            <stop id="stop1587" stop-color="#48DF87" offset=".658" />
            <stop id="stop1589" stop-color="#7DFE8B" offset=".9906" />
            <stop id="stop1591" stop-color="#7FFF8B" offset="1" />
        </linearGradient>
        <linearGradient id="linearGradient2183" y2="673.93" xlink:href="#SVGID_138_" gradientUnits="userSpaceOnUse" x2="1038" y1="673.93" x1="942.16" />
        <linearGradient id="linearGradient2185" y2="664.03" xlink:href="#SVGID_139_" gradientUnits="userSpaceOnUse" x2="1038" y1="664.03" x1="942.16" />
    </defs>
    <style>
      #top-cash {
        transition: transform 700ms cubic-bezier(0.71, -0.04, 0.52, 1.04) 1500ms;
      }
      .animate #top-cash {
        transform: translateY(30%);
      }
    </style>
    <g id="g2143" transform="translate(-.044554 14.666)">
        <polygon id="polygon2131" points="1038 674.9 1038 673.9 942.2 654.8 942.2 656.1 1006.1 693" fill="url(#SVGID_138_)" transform="matrix(1.3771 0 0 1.3658 -1297.4 -829.17)" class="st177" />
        <polygon id="polygon2133" points="942.2 654.8 974.1 636.4 1038 673.3 1006.1 691.7" fill="url(#SVGID_139_)" transform="matrix(1.3771 0 0 1.3658 -1297.4 -829.17)" class="st178" />
        <ellipse id="ellipse2135" rx="20.931" ry="11.199" cy="76.331" cx="64.505" stroke-width="1.3714" class="st172" fill="#003437" />
        <ellipse id="ellipse2137" rx="18.039" ry="9.697" cy="76.331" cx="64.505" stroke-width="1.3714" class="st4" fill="#fff" />
        <g id="g2141" aria-label="$" stroke-width="1.1432" transform="matrix(.80608 .47262 -1.0225 .63139 -958.5 -465.53)" fill="#003437">
            <path id="path2139" stroke-width="1.1432" d="m1210.1-37.921h-0.9564l-0.01-2.8787q-1.0042-0.01913-2.0084-0.22953-1.0042-0.21997-2.0179-0.65034v-1.7215q0.9755 0.61208 1.9701 0.92769 1.0042 0.30604 2.0658 0.31561v-4.3611q-2.1136-0.3443-3.0795-1.1668-0.9564-0.82249-0.9564-2.2571 0-1.5589 1.0424-2.4579 1.0425-0.899 2.9935-1.0329v-2.2475h0.9564v2.2188q0.8894 0.03825 1.7215 0.19128 0.832 0.14346 1.6258 0.40168v1.6737q-0.7938-0.40168-1.6354-0.62165-0.8321-0.21997-1.7119-0.25822v4.0837q2.171 0.33473 3.1943 1.1955 1.0233 0.86074 1.0233 2.3527 0 1.6163-1.0903 2.5535-1.0807 0.92769-3.1273 1.0711zm-0.9564-10.243v-3.9212q-1.1094 0.12433-1.6928 0.63121t-0.5834 1.3485q0 0.82249 0.5356 1.2816 0.5451 0.45906 1.7406 0.6599zm0.9564 1.8363v4.1411q1.2146-0.16258 1.8267-0.68859 0.6216-0.52601 0.6216-1.3868 0-0.84162-0.5929-1.3389-0.5834-0.49732-1.8554-0.72685z" fill="#003437" />
        </g>
    </g>
<g id="top-cash">
    <g id="g2201">
        <g id="g2157" transform="translate(-.044554 -31.863)">
            <polygon id="polygon2145" transform="matrix(1.3771,0,0,1.3658,-1297.4,-829.17)" class="st177" points="1038 673.9 942.2 654.8 942.2 656.1 1006.1 693 1038 674.9" fill="url(#linearGradient2183)" />
            <polygon id="polygon2147" transform="matrix(1.3771,0,0,1.3658,-1297.4,-829.17)" class="st178" points="1038 673.3 1006.1 691.7 942.2 654.8 974.1 636.4" fill="url(#linearGradient2185)" />
            <ellipse id="ellipse2149" rx="20.931" ry="11.199" class="st172" cy="76.331" cx="64.505" stroke-width="1.3714" fill="#003437" />
            <ellipse id="ellipse2151" rx="18.039" ry="9.697" class="st4" cy="76.331" cx="64.505" stroke-width="1.3714" fill="#fff" />
            <g id="g2155" aria-label="$" transform="matrix(.80608 .47262 -1.0225 .63139 -958.5 -465.53)" stroke-width="1.1432" fill="#003437">
                <path id="path2153" stroke-width="1.1432" fill="#003437" d="m1210.1-37.921h-0.9564l-0.01-2.8787q-1.0042-0.01913-2.0084-0.22953-1.0042-0.21997-2.0179-0.65034v-1.7215q0.9755 0.61208 1.9701 0.92769 1.0042 0.30604 2.0658 0.31561v-4.3611q-2.1136-0.3443-3.0795-1.1668-0.9564-0.82249-0.9564-2.2571 0-1.5589 1.0424-2.4579 1.0425-0.899 2.9935-1.0329v-2.2475h0.9564v2.2188q0.8894 0.03825 1.7215 0.19128 0.832 0.14346 1.6258 0.40168v1.6737q-0.7938-0.40168-1.6354-0.62165-0.8321-0.21997-1.7119-0.25822v4.0837q2.171 0.33473 3.1943 1.1955 1.0233 0.86074 1.0233 2.3527 0 1.6163-1.0903 2.5535-1.0807 0.92769-3.1273 1.0711zm-0.9564-10.243v-3.9212q-1.1094 0.12433-1.6928 0.63121t-0.5834 1.3485q0 0.82249 0.5356 1.2816 0.5451 0.45906 1.7406 0.6599zm0.9564 1.8363v4.1411q1.2146-0.16258 1.8267-0.68859 0.6216-0.52601 0.6216-1.3868 0-0.84162-0.5929-1.3389-0.5834-0.49732-1.8554-0.72685z" />
            </g>
        </g>
        <g id="g2171" transform="translate(-.044554 -40.029)">
            <polygon id="polygon2159" class="st177" points="1038 673.9 942.2 654.8 942.2 656.1 1006.1 693 1038 674.9" transform="matrix(1.3771 0 0 1.3658 -1297.4 -829.17)" fill="url(#SVGID_138_)" />
            <polygon id="polygon2161" class="st178" points="1038 673.3 1006.1 691.7 942.2 654.8 974.1 636.4" transform="matrix(1.3771 0 0 1.3658 -1297.4 -829.17)" fill="url(#SVGID_139_)" />
            <ellipse id="ellipse2163" rx="20.931" ry="11.199" cy="76.331" cx="64.505" stroke-width="1.3714" class="st172" fill="#003437" />
            <ellipse id="ellipse2165" rx="18.039" ry="9.697" cy="76.331" cx="64.505" stroke-width="1.3714" class="st4" fill="#fff" />
            <g id="g2169" aria-label="$" stroke-width="1.1432" transform="matrix(.80608 .47262 -1.0225 .63139 -958.5 -465.53)" fill="#003437">
                <path id="path2167" stroke-width="1.1432" d="m1210.1-37.921h-0.9564l-0.01-2.8787q-1.0042-0.01913-2.0084-0.22953-1.0042-0.21997-2.0179-0.65034v-1.7215q0.9755 0.61208 1.9701 0.92769 1.0042 0.30604 2.0658 0.31561v-4.3611q-2.1136-0.3443-3.0795-1.1668-0.9564-0.82249-0.9564-2.2571 0-1.5589 1.0424-2.4579 1.0425-0.899 2.9935-1.0329v-2.2475h0.9564v2.2188q0.8894 0.03825 1.7215 0.19128 0.832 0.14346 1.6258 0.40168v1.6737q-0.7938-0.40168-1.6354-0.62165-0.8321-0.21997-1.7119-0.25822v4.0837q2.171 0.33473 3.1943 1.1955 1.0233 0.86074 1.0233 2.3527 0 1.6163-1.0903 2.5535-1.0807 0.92769-3.1273 1.0711zm-0.9564-10.243v-3.9212q-1.1094 0.12433-1.6928 0.63121t-0.5834 1.3485q0 0.82249 0.5356 1.2816 0.5451 0.45906 1.7406 0.6599zm0.9564 1.8363v4.1411q1.2146-0.16258 1.8267-0.68859 0.6216-0.52601 0.6216-1.3868 0-0.84162-0.5929-1.3389-0.5834-0.49732-1.8554-0.72685z" fill="#003437" />
            </g>
        </g>
    </g>
</g>
</svg>
