<svg xmlns="http://www.w3.org/2000/svg" xmlns:xlink="http://www.w3.org/1999/xlink" viewBox="0 0 996.219 973.522">
  <defs>
    <style>
      .cls-1 {
        fill: url(#linear-gradient);
      }

      .cls-2 {
        fill: url(#linear-gradient-3);
      }

      .cls-3 {
        fill: rgba(0,255,255,0.06);
      }

      .cls-4 {
        fill: rgba(49,118,164,0.19);
      }

      .cls-4, .cls-6 {
        stroke: #00d3ff;
      }

      .cls-5, .cls-6, .cls-9 {
        fill: none;
      }

      .cls-5 {
        stroke: rgba(0,0,0,0.05);
        stroke-width: 2px;
      }

      .cls-6 {
        stroke-width: 3px;
      }

      .cls-7 {
        fill: #00cbff;
      }

      .cls-8 {
        stroke: none;
      }

      .cls-10 {
        filter: url(#Ellipse_159);
      }

      .cls-11 {
        filter: url(#Ellipse_157);
      }

      .cls-12 {
        filter: url(#Ellipse_155);
      }

      .cls-13 {
        filter: url(#Ellipse_153);
      }

      .cls-14 {
        filter: url(#Ellipse_96);
      }

      .cls-15 {
        filter: url(#Ellipse_92);
      }

      .cls-16 {
        filter: url(#Ellipse_163);
      }

      .cls-17 {
        filter: url(#Ellipse_162);
      }
    </style>
    <linearGradient id="linear-gradient" x1="1.125" y1="0.15" x2="0.5" y2="1" gradientUnits="objectBoundingBox">
      <stop offset="0" stop-color="#02004a"/>
      <stop offset="1" stop-color="#00d3ff"/>
    </linearGradient>
    <filter id="Ellipse_162" x="746.092" y="70.202" width="250.127" height="251.577" filterUnits="userSpaceOnUse">
      <feOffset dx="-7" dy="23" input="SourceAlpha"/>
      <feGaussianBlur stdDeviation="36" result="blur"/>
      <feFlood flood-color="#00dcff" flood-opacity="0.42"/>
      <feComposite operator="in" in2="blur"/>
      <feComposite in="SourceGraphic"/>
    </filter>
    <filter id="Ellipse_163" x="67.89" y="0" width="232.462" height="232.499" filterUnits="userSpaceOnUse">
      <feOffset dx="-7" dy="23" input="SourceAlpha"/>
      <feGaussianBlur stdDeviation="36" result="blur-2"/>
      <feFlood flood-color="#00dcff" flood-opacity="0.42"/>
      <feComposite operator="in" in2="blur-2"/>
      <feComposite in="SourceGraphic"/>
    </filter>
    <linearGradient id="linear-gradient-3" x1="0.501" y1="0.126" x2="0.501" y2="1.108" gradientUnits="objectBoundingBox">
      <stop offset="0" stop-color="#00b4ff"/>
      <stop offset="0.201" stop-color="#1387ec" stop-opacity="0.784"/>
      <stop offset="0.549" stop-color="#323fcd" stop-opacity="0.408"/>
      <stop offset="0.799" stop-color="#4611ba" stop-opacity="0.137"/>
      <stop offset="0.924" stop-color="#4d00b3" stop-opacity="0"/>
    </linearGradient>
    <filter id="Ellipse_92" x="59.201" y="632.195" width="920.24" height="341.327" filterUnits="userSpaceOnUse">
      <feOffset dy="3" input="SourceAlpha"/>
      <feGaussianBlur stdDeviation="40" result="blur-3"/>
      <feFlood flood-color="#00ffdc" flood-opacity="0.42"/>
      <feComposite operator="in" in2="blur-3"/>
      <feComposite in="SourceGraphic"/>
    </filter>
    <filter id="Ellipse_96" x="204.023" y="743.126" width="630.596" height="119.464" filterUnits="userSpaceOnUse">
      <feOffset dy="3" input="SourceAlpha"/>
      <feGaussianBlur stdDeviation="5" result="blur-4"/>
      <feFlood flood-color="#00dcff"/>
      <feComposite operator="in" in2="blur-4"/>
      <feComposite in="SourceGraphic"/>
    </filter>
    <filter id="Ellipse_153" x="640.221" y="727.08" width="35.915" height="35.915" filterUnits="userSpaceOnUse">
      <feOffset dy="3" input="SourceAlpha"/>
      <feGaussianBlur stdDeviation="5" result="blur-5"/>
      <feFlood flood-color="#00dcff"/>
      <feComposite operator="in" in2="blur-5"/>
      <feComposite in="SourceGraphic"/>
    </filter>
    <filter id="Ellipse_155" x="853.216" y="652.318" width="50.703" height="50.703" filterUnits="userSpaceOnUse">
      <feOffset dy="3" input="SourceAlpha"/>
      <feGaussianBlur stdDeviation="5" result="blur-6"/>
      <feFlood flood-color="#00dcff"/>
      <feComposite operator="in" in2="blur-6"/>
      <feComposite in="SourceGraphic"/>
    </filter>
    <filter id="Ellipse_157" x="476.731" y="711.08" width="35.915" height="35.915" filterUnits="userSpaceOnUse">
      <feOffset dy="3" input="SourceAlpha"/>
      <feGaussianBlur stdDeviation="5" result="blur-7"/>
      <feFlood flood-color="#00dcff"/>
      <feComposite operator="in" in2="blur-7"/>
      <feComposite in="SourceGraphic"/>
    </filter>
    <filter id="Ellipse_159" x="0" y="453.146" width="251.7" height="253.15" filterUnits="userSpaceOnUse">
      <feOffset dx="-7" dy="23" input="SourceAlpha"/>
      <feGaussianBlur stdDeviation="36" result="blur-8"/>
      <feFlood flood-color="#00dcff" flood-opacity="0.42"/>
      <feComposite operator="in" in2="blur-8"/>
      <feComposite in="SourceGraphic"/>
    </filter>
  </defs>
  <g id="Circulo" transform="translate(-769.866 -30.047)">
    <g class="cls-17" transform="matrix(1, 0, 0, 1, 769.87, 30.05)">
      <ellipse id="Ellipse_162-2" data-name="Ellipse 162" class="cls-1" cx="13.715" cy="14.741" rx="13.715" ry="14.741" transform="matrix(0.97, 0.26, -0.26, 0.97, 868.72, 155.2)"/>
    </g>
    <g class="cls-16" transform="matrix(1, 0, 0, 1, 769.87, 30.05)">
      <ellipse id="Ellipse_163-2" data-name="Ellipse 163" class="cls-1" cx="6.715" cy="6.741" rx="6.715" ry="6.741" transform="matrix(0.97, 0.26, -0.26, 0.97, 186.38, 85)"/>
    </g>
    <path id="Path_183" data-name="Path 183" class="cls-2" d="M2.416,84.262h0c-1.359,0,0,1.359,0,0L0,2.416A2.385,2.385,0,0,1,2.416,0h0A2.385,2.385,0,0,1,4.832,2.416L2.416,84.262C2.416,85.621,3.775,84.262,2.416,84.262Z" transform="translate(969.77 735.272)"/>
    <g id="Circulos_Inferior" data-name="Circulos Inferior">
      <g class="cls-15" transform="matrix(1, 0, 0, 1, 769.87, 30.05)">
        <ellipse id="Ellipse_92-2" data-name="Ellipse 92" class="cls-3" cx="340.12" cy="50.664" rx="340.12" ry="50.664" transform="translate(179.2 749.19)"/>
      </g>
      <g id="Ellipse_94" data-name="Ellipse 94" class="cls-4" transform="translate(1042.041 793.09)">
        <ellipse class="cls-8" cx="247.146" cy="36.814" rx="247.146" ry="36.814"/>
        <ellipse class="cls-9" cx="247.146" cy="36.814" rx="246.646" ry="36.314"/>
      </g>
      <g id="Ellipse_93" data-name="Ellipse 93" class="cls-5" transform="translate(989.704 785.295)">
        <ellipse class="cls-8" cx="299.483" cy="44.61" rx="299.483" ry="44.61"/>
        <ellipse class="cls-9" cx="299.483" cy="44.61" rx="298.483" ry="43.61"/>
      </g>
      <g class="cls-14" transform="matrix(1, 0, 0, 1, 769.87, 30.05)">
        <g id="Ellipse_96-2" data-name="Ellipse 96" class="cls-6" transform="translate(219.02 755.13)">
          <ellipse class="cls-8" cx="300.298" cy="44.732" rx="300.298" ry="44.732"/>
          <ellipse class="cls-9" cx="300.298" cy="44.732" rx="298.798" ry="43.232"/>
        </g>
      </g>
    </g>
    <g class="cls-13" transform="matrix(1, 0, 0, 1, 769.87, 30.05)">
      <ellipse id="Ellipse_153-2" data-name="Ellipse 153" class="cls-7" cx="2.958" cy="2.958" rx="2.958" ry="2.958" transform="translate(655.22 739.08)"/>
    </g>
    <g class="cls-12" transform="matrix(1, 0, 0, 1, 769.87, 30.05)">
      <ellipse id="Ellipse_155-2" data-name="Ellipse 155" class="cls-7" cx="10.351" cy="10.351" rx="10.351" ry="10.351" transform="translate(868.22 664.32)"/>
    </g>
    <g class="cls-11" transform="matrix(1, 0, 0, 1, 769.87, 30.05)">
      <ellipse id="Ellipse_157-2" data-name="Ellipse 157" class="cls-7" cx="2.958" cy="2.958" rx="2.958" ry="2.958" transform="translate(491.73 723.08)"/>
    </g>
    <g class="cls-10" transform="matrix(1, 0, 0, 1, 769.87, 30.05)">
      <ellipse id="Ellipse_159-2" data-name="Ellipse 159" class="cls-1" cx="14.358" cy="15.383" rx="14.358" ry="15.383" transform="matrix(0.97, -0.26, 0.26, 0.97, 115, 545.58)"/>
    </g>
  </g>
</svg>
