<svg xmlns="http://www.w3.org/2000/svg" viewBox="565.924 2965.448 39.676 25.183">
  <defs>
    <style>
      .cls-1 {
        fill: #00d3ff;
      }

      .cls-2 {
        fill: #fff;
      }
    </style>
  </defs>
  <g id="Icono_conversacion_y_play" data-name="Icono conversacion y play" transform="translate(565.924 2965.448)">
    <path id="Path_102" data-name="Path 102" class="cls-1" d="M36.211,0H20.1a3.464,3.464,0,0,0-3.465,3.465v.347H2.079A2.085,2.085,0,0,0,0,5.891V19.578a2.085,2.085,0,0,0,2.079,2.079h.892v2.66a.88.88,0,0,0,.866.866.872.872,0,0,0,.615-.251l3.266-3.275h17.2A2.085,2.085,0,0,0,27,19.578v-2.6h9.209a3.464,3.464,0,0,0,3.465-3.465V3.465A3.464,3.464,0,0,0,36.211,0Z"/>
    <path id="Path_103" data-name="Path 103" class="cls-2" d="M289.025,51.989,283.1,48.567a.866.866,0,0,0-1.3.754v6.844a.869.869,0,0,0,.433.754.889.889,0,0,0,.866,0l5.925-3.422a.872.872,0,0,0,0-1.507Z" transform="translate(-257.388 -44.253)"/>
    <path id="Path_104" data-name="Path 104" class="cls-2" d="M60.029,105H51.366a.866.866,0,1,0,0,1.733h8.663a.866.866,0,0,0,0-1.733Z" transform="translate(-46.125 -95.904)"/>
    <path id="Path_105" data-name="Path 105" class="cls-2" d="M151.366,161a.911.911,0,0,0-.615.251.857.857,0,0,0-.251.615.9.9,0,0,0,.251.615.857.857,0,0,0,.615.251.911.911,0,0,0,.615-.251.857.857,0,0,0,.251-.615.9.9,0,0,0-.251-.615A.911.911,0,0,0,151.366,161Z" transform="translate(-137.462 -147.053)"/>
    <path id="Path_106" data-name="Path 106" class="cls-2" d="M56.781,161H51.366a.866.866,0,1,0,0,1.733h5.414a.866.866,0,1,0,0-1.733Z" transform="translate(-46.125 -147.053)"/>
  </g>
</svg>
