<svg xmlns="http://www.w3.org/2000/svg" xml:space="preserve" version="1.1" y="0px" x="0px" viewBox="0 0 132 132"><defs><linearGradient id="SVGID_132_" y2="685.42" gradientUnits="userSpaceOnUse" x2="1038" y1="685.42" x1="942.16"><stop stop-color="#7FFF8B" offset="0"/><stop stop-color="#60D679" offset=".1856"/><stop stop-color="#37A160" offset=".4588"/><stop stop-color="#197A4F" offset=".6955"/><stop stop-color="#076244" offset=".8838"/><stop stop-color="#005940" offset="1"/></linearGradient><linearGradient id="SVGID_133_" y2="675.53" gradientUnits="userSpaceOnUse" x2="1038" y1="675.53" x1="942.16"><stop stop-color="#00B581" offset="0"/><stop stop-color="#09BA82" offset=".1414"/><stop stop-color="#21C884" offset=".3702"/><stop stop-color="#48DF87" offset=".658"/><stop stop-color="#7DFE8B" offset=".9906"/><stop stop-color="#7FFF8B" offset="1"/></linearGradient><linearGradient id="SVGID_135_" y2="680.14" gradientUnits="userSpaceOnUse" x2="1038" y1="680.14" x1="942.16"><stop stop-color="#7FFF8B" offset="0"/><stop stop-color="#60D679" offset=".1856"/><stop stop-color="#37A160" offset=".4588"/><stop stop-color="#197A4F" offset=".6955"/><stop stop-color="#076244" offset=".8838"/><stop stop-color="#005940" offset="1"/></linearGradient><linearGradient id="SVGID_136_" y2="670.24" gradientUnits="userSpaceOnUse" x2="1038" y1="670.24" x1="942.16"><stop stop-color="#00B581" offset="0"/><stop stop-color="#09BA82" offset=".1414"/><stop stop-color="#21C884" offset=".3702"/><stop stop-color="#48DF87" offset=".658"/><stop stop-color="#7DFE8B" offset=".9906"/><stop stop-color="#7FFF8B" offset="1"/></linearGradient><linearGradient id="SVGID_138_" y2="673.93" gradientUnits="userSpaceOnUse" x2="1038" y1="673.93" x1="942.16"><stop stop-color="#7FFF8B" offset="0"/><stop stop-color="#60D679" offset=".1856"/><stop stop-color="#37A160" offset=".4588"/><stop stop-color="#197A4F" offset=".6955"/><stop stop-color="#076244" offset=".8838"/><stop stop-color="#005940" offset="1"/></linearGradient><linearGradient id="SVGID_139_" y2="664.03" gradientUnits="userSpaceOnUse" x2="1038" y1="664.03" x1="942.16"><stop stop-color="#00B581" offset="0"/><stop stop-color="#09BA82" offset=".1414"/><stop stop-color="#21C884" offset=".3702"/><stop stop-color="#48DF87" offset=".658"/><stop stop-color="#7DFE8B" offset=".9906"/><stop stop-color="#7FFF8B" offset="1"/></linearGradient></defs>
<style type="text/css">
	.st0{fill:url(#SVGID_1_);}
	.st1{display:none;}
	.st2{display:inline;}
	.st3{fill:none;stroke:#FFFFFF;stroke-width:0.25;stroke-miterlimit:10;}
	.st4{fill:#FFFFFF;}
	.st5{fill:#828282;}
	.st6{fill:#999999;}
	.st7{fill:#CCCCCC;}
	.st8{fill:url(#SVGID_2_);}
	.st9{fill:url(#SVGID_3_);}
	.st10{fill:url(#SVGID_4_);}
	.st11{fill:url(#SVGID_5_);}
	.st12{fill:url(#SVGID_6_);}
	.st13{fill:url(#SVGID_7_);}
	.st14{fill:url(#SVGID_8_);}
	.st15{fill:url(#SVGID_9_);}
	.st16{fill:url(#SVGID_10_);}
	.st17{fill:url(#SVGID_11_);}
	.st18{fill:url(#SVGID_12_);}
	.st19{fill:url(#SVGID_13_);}
	.st20{fill:url(#SVGID_14_);}
	.st21{fill:url(#SVGID_15_);}
	.st22{fill:url(#SVGID_16_);}
	.st23{fill:url(#SVGID_17_);}
	.st24{fill:#1B0156;}
	.st25{fill:#583BC0;}
	.st26{fill:#00D9FF;}
	.st27{fill:url(#SVGID_18_);}
	.st28{fill:#7A61B3;}
	.st29{fill:url(#SVGID_19_);}
	.st30{fill:#7CFFFF;}
	.st31{fill:url(#SVGID_20_);}
	.st32{fill:url(#SVGID_21_);}
	.st33{fill:url(#SVGID_22_);}
	.st34{fill:url(#SVGID_23_);}
	.st35{fill:url(#SVGID_24_);}
	.st36{fill:url(#SVGID_25_);}
	.st37{fill:url(#SVGID_26_);}
	.st38{fill:url(#SVGID_27_);}
	.st39{fill:url(#SVGID_28_);}
	.st40{fill:url(#SVGID_29_);}
	.st41{fill:url(#SVGID_30_);}
	.st42{fill:url(#SVGID_31_);}
	.st43{fill:url(#SVGID_32_);}
	.st44{fill:url(#SVGID_33_);}
	.st45{fill:url(#SVGID_34_);}
	.st46{fill:url(#SVGID_35_);}
	.st47{fill:url(#SVGID_36_);}
	.st48{fill:url(#SVGID_37_);}
	.st49{fill:url(#SVGID_38_);}
	.st50{fill:url(#SVGID_39_);}
	.st51{opacity:0.24;fill:url(#SVGID_40_);}
	.st52{fill:url(#SVGID_41_);}
	.st53{fill:url(#SVGID_42_);}
	.st54{fill:url(#SVGID_43_);}
	.st55{fill:url(#SVGID_44_);}
	.st56{fill:url(#SVGID_45_);}
	.st57{fill:url(#SVGID_46_);}
	.st58{fill:url(#SVGID_47_);}
	.st59{fill:url(#SVGID_48_);}
	.st60{fill:#070909;}
	.st61{fill:#60AAE0;}
	.st62{clip-path:url(#SVGID_50_);fill:url(#SVGID_51_);}
	.st63{clip-path:url(#SVGID_53_);fill:url(#SVGID_54_);}
	.st64{fill:none;stroke:url(#SVGID_55_);stroke-width:0.768;stroke-miterlimit:10;}
	.st65{fill:none;stroke:url(#SVGID_56_);stroke-width:0.768;stroke-miterlimit:10;}
	.st66{fill:none;stroke:url(#SVGID_57_);stroke-width:0.768;stroke-miterlimit:10;}
	.st67{fill:none;stroke:url(#SVGID_58_);stroke-width:0.768;stroke-miterlimit:10;}
	.st68{fill:url(#_x34__1_);}
	.st69{fill:url(#_x33__1_);}
	.st70{fill:url(#_x32__1_);}
	.st71{fill:url(#_x31__1_);}
	.st72{fill:url(#SVGID_59_);}
	.st73{fill:url(#SVGID_60_);}
	.st74{fill:url(#SVGID_61_);}
	.st75{fill:#090E1F;}
	.st76{display:inline;fill:#ECCDB9;}
	.st77{display:inline;fill:#FFFFFF;}
	.st78{display:inline;fill:#182653;}
	.st79{fill:#ECCDB9;}
	.st80{fill:#182653;}
	.st81{fill:#22366B;}
	.st82{fill:#1C2E63;}
	.st83{fill:#11253E;}
	.st84{fill:#38274B;}
	.st85{fill:#261B33;}
	.st86{fill:#D1B5A4;}
	.st87{fill:#C2A898;}
	.st88{display:inline;fill:#11253E;}
	.st89{fill:url(#SVGID_62_);}
	.st90{fill:url(#SVGID_63_);}
	.st91{fill:url(#SVGID_64_);}
	.st92{fill:url(#SVGID_65_);}
	.st93{fill:url(#SVGID_66_);}
	.st94{fill:url(#SVGID_67_);}
	.st95{fill:url(#SVGID_68_);}
	.st96{fill:url(#SVGID_69_);}
	.st97{fill:url(#SVGID_70_);}
	.st98{fill:url(#SVGID_71_);}
	.st99{fill:url(#SVGID_72_);}
	.st100{fill:url(#SVGID_73_);}
	.st101{fill:url(#SVGID_74_);}
	.st102{fill:url(#SVGID_75_);}
	.st103{fill:url(#SVGID_76_);}
	.st104{fill:url(#SVGID_77_);}
	.st105{fill:url(#SVGID_78_);}
	.st106{fill:url(#SVGID_79_);}
	.st107{fill:url(#SVGID_80_);}
	.st108{fill:#F1F1F1;}
	.st109{font-family:&apos;Gilroy-ExtraBold&apos;;}
	.st110{font-size:10.7165px;}
	.st111{fill:url(#SVGID_81_);}
	.st112{fill:url(#SVGID_82_);}
	.st113{fill-rule:evenodd;clip-rule:evenodd;fill:url(#SVGID_83_);}
	.st114{fill-rule:evenodd;clip-rule:evenodd;fill:url(#SVGID_84_);}
	.st115{fill:url(#SVGID_85_);}
	.st116{fill:url(#SVGID_86_);}
	.st117{fill:url(#SVGID_87_);}
	.st118{fill:url(#SVGID_88_);}
	.st119{fill:url(#SVGID_89_);}
	.st120{fill:url(#SVGID_90_);}
	.st121{fill:url(#SVGID_91_);}
	.st122{fill:none;stroke:#E6E6E6;stroke-width:0.8207;stroke-miterlimit:10;}
	.st123{fill:#E6E6E6;}
	.st124{fill:none;stroke:#999999;stroke-width:0.8207;stroke-miterlimit:10;}
	.st125{fill:url(#SVGID_92_);}
	.st126{font-size:7.8824px;}
	.st127{fill:none;}
	.st128{fill:url(#SVGID_93_);}
	.st129{fill:url(#SVGID_94_);}
	.st130{fill:url(#SVGID_95_);}
	.st131{opacity:0.78;fill:url(#SVGID_96_);}
	.st132{fill:url(#SVGID_97_);}
	.st133{fill:url(#SVGID_98_);}
	.st134{fill:url(#SVGID_99_);}
	.st135{fill:url(#SVGID_100_);}
	.st136{fill:url(#SVGID_101_);}
	.st137{fill:url(#SVGID_102_);}
	.st138{fill:url(#SVGID_103_);}
	.st139{fill:url(#SVGID_104_);}
	.st140{fill:url(#SVGID_105_);}
	.st141{fill:#C42740;}
	.st142{fill:url(#SVGID_106_);}
	.st143{fill:url(#SVGID_107_);}
	.st144{fill:url(#SVGID_108_);}
	.st145{fill:url(#SVGID_109_);}
	.st146{fill:url(#SVGID_110_);}
	.st147{fill:url(#SVGID_111_);}
	.st148{fill:url(#SVGID_112_);}
	.st149{fill:url(#SVGID_113_);}
	.st150{fill:url(#SVGID_114_);}
	.st151{fill:url(#SVGID_115_);}
	.st152{fill:url(#SVGID_116_);}
	.st153{fill:url(#SVGID_117_);}
	.st154{fill:url(#SVGID_118_);}
	.st155{fill:url(#SVGID_119_);}
	.st156{fill:url(#SVGID_120_);}
	.st157{fill:url(#SVGID_121_);}
	.st158{fill:url(#SVGID_122_);}
	.st159{fill:url(#SVGID_123_);}
	.st160{fill:url(#SVGID_124_);}
	.st161{fill:url(#SVGID_125_);}
	.st162{fill:url(#SVGID_126_);}
	.st163{fill:url(#SVGID_127_);}
	.st164{fill:url(#SVGID_128_);}
	.st165{fill:url(#SVGID_129_);}
	.st166{fill:url(#SVGID_130_);}
	.st167{fill:url(#SVGID_131_);}
	.st168{fill:url(#SVGID_132_);}
	.st169{fill:url(#SVGID_133_);}
	.st170{fill:url(#SVGID_134_);}
	.st171{fill:url(#SVGID_135_);}
	.st172{fill:#003437;}
	.st173{fill:url(#SVGID_136_);}
	.st174{font-family:&apos;MyriadPro-Bold&apos;;}
	.st175{font-size:11.1567px;}
	.st176{fill:url(#SVGID_137_);}
	.st177{fill:url(#SVGID_138_);}
	.st178{fill:url(#SVGID_139_);}
	.st179{fill:url(#SVGID_140_);}
	.st180{fill:url(#SVGID_141_);}
	.st181{fill:url(#Brillo_2_);}
	.st182{fill:url(#SVGID_142_);}
	.st183{fill:url(#SVGID_143_);}
	.st184{fill:url(#SVGID_144_);}
	.st185{font-size:17.1332px;}
	.st186{fill:url(#SVGID_145_);}
	.st187{fill:url(#SVGID_146_);}
	.st188{fill:url(#SVGID_147_);}
	.st189{fill:url(#SVGID_148_);}
	.st190{fill:url(#SVGID_149_);}
	.st191{fill:url(#Brillo_3_);}
	.st192{fill:url(#SVGID_150_);}
	.st193{fill:url(#SVGID_151_);}
	.st194{fill:url(#SVGID_152_);}
	.st195{font-size:12.4513px;}
	.st196{fill:url(#SVGID_153_);}
	.st197{fill:url(#SVGID_154_);}
	.st198{fill:url(#SVGID_155_);}
	.st199{fill:url(#SVGID_156_);}
	.st200{fill:url(#SVGID_157_);}
	.st201{fill:url(#brillo_1_);}
	.st202{fill:url(#SVGID_158_);}
	.st203{fill:url(#SVGID_159_);}
	.st204{fill:#9BA7BE;}
	.st205{fill:#2F3B50;}
	.st206{fill:#0C1523;}
	.st207{opacity:0.3;fill:#FFFFFF;}
	.st208{fill:url(#SVGID_160_);}
	.st209{fill:#D8E7E9;}
	.st210{fill:#1A2F4A;}
	.st211{fill:url(#SVGID_161_);}
	.st212{fill:#CAD7EE;}
	.st213{fill:#E5F0FF;}
	.st214{fill:url(#SVGID_162_);}
	.st215{fill:url(#SVGID_163_);}
	.st216{fill:#E4EBFD;}
	.st217{fill:url(#SVGID_164_);}
	.st218{fill:url(#SVGID_165_);}
	.st219{fill:url(#SVGID_166_);}
	.st220{fill:url(#SVGID_167_);}
</style>
<g id="Guias_Isometricas" class="st1" transform="translate(0,-948)" stroke="#fff" stroke-miterlimit="10" stroke-width=".25" display="none" fill="none">
	<g class="st2" display="inline">
		<line y2="2028.3" x2="7.5" y1="-948.3" x1="7.5" class="st3"/>
		<line y2="2028.3" x2="37.3" y1="-948.3" x1="37.3" class="st3"/>
		<line y2="2028.3" x2="67" y1="-948.3" x1="67" class="st3"/>
		<line y2="2028.3" x2="96.8" y1="-948.3" x1="96.8" class="st3"/>
		<line y2="2028.3" x2="126.6" y1="-948.3" x1="126.6" class="st3"/>
		<line y2="2028.3" x2="156.3" y1="-948.3" x1="156.3" class="st3"/>
		<line y2="2028.3" x2="186.1" y1="-948.3" x1="186.1" class="st3"/>
		<line y2="2028.3" x2="215.9" y1="-948.3" x1="215.9" class="st3"/>
		<line y2="2028.3" x2="245.6" y1="-948.3" x1="245.6" class="st3"/>
		<line y2="2028.3" x2="275.4" y1="-948.3" x1="275.4" class="st3"/>
		<line y2="2028.3" x2="305.2" y1="-948.3" x1="305.2" class="st3"/>
		<line y2="2028.3" x2="334.9" y1="-948.3" x1="334.9" class="st3"/>
		<line y2="2028.3" x2="364.7" y1="-948.3" x1="364.7" class="st3"/>
		<line y2="2028.3" x2="394.5" y1="-948.3" x1="394.5" class="st3"/>
		<line y2="2028.3" x2="424.2" y1="-948.3" x1="424.2" class="st3"/>
		<line y2="2028.3" x2="454" y1="-948.3" x1="454" class="st3"/>
		<line y2="2028.3" x2="483.8" y1="-948.3" x1="483.8" class="st3"/>
		<line y2="2028.3" x2="513.5" y1="-948.3" x1="513.5" class="st3"/>
		<line y2="2028.3" x2="543.3" y1="-948.3" x1="543.3" class="st3"/>
		<line y2="2028.3" x2="573.1" y1="-948.3" x1="573.1" class="st3"/>
		<line y2="2028.3" x2="602.8" y1="-948.3" x1="602.8" class="st3"/>
		<line y2="2028.3" x2="632.6" y1="-948.3" x1="632.6" class="st3"/>
		<line y2="2028.3" x2="662.3" y1="-948.3" x1="662.3" class="st3"/>
		<line y2="2028.3" x2="692.1" y1="-948.3" x1="692.1" class="st3"/>
		<line y2="2028.3" x2="721.9" y1="-948.3" x1="721.9" class="st3"/>
		<line y2="2028.3" x2="751.6" y1="-948.3" x1="751.6" class="st3"/>
		<line y2="2028.3" x2="781.4" y1="-948.3" x1="781.4" class="st3"/>
		<line y2="2028.3" x2="811.2" y1="-948.3" x1="811.2" class="st3"/>
		<line y2="2028.3" x2="840.9" y1="-948.3" x1="840.9" class="st3"/>
		<line y2="2028.3" x2="870.7" y1="-948.3" x1="870.7" class="st3"/>
		<line y2="2028.3" x2="900.5" y1="-948.3" x1="900.5" class="st3"/>
		<line y2="2028.3" x2="930.2" y1="-948.3" x1="930.2" class="st3"/>
		<line y2="2028.3" x2="960" y1="-948.3" x1="960" class="st3"/>
		<line y2="2028.3" x2="989.8" y1="-948.3" x1="989.8" class="st3"/>
		<line y2="2028.3" x2="1019.5" y1="-948.3" x1="1019.5" class="st3"/>
		<line y2="2028.3" x2="1049.3" y1="-948.3" x1="1049.3" class="st3"/>
		<line y2="2028.3" x2="1079.1" y1="-948.3" x1="1079.1" class="st3"/>
		<line y2="2028.3" x2="1108.8" y1="-948.3" x1="1108.8" class="st3"/>
		<line y2="2028.3" x2="1138.6" y1="-948.3" x1="1138.6" class="st3"/>
		<line y2="2028.3" x2="1168.4" y1="-948.3" x1="1168.4" class="st3"/>
		<line y2="2028.3" x2="1198.1" y1="-948.3" x1="1198.1" class="st3"/>
		<line y2="2028.3" x2="1227.9" y1="-948.3" x1="1227.9" class="st3"/>
		<line y2="2028.3" x2="1257.7" y1="-948.3" x1="1257.7" class="st3"/>
		<line y2="2028.3" x2="1287.4" y1="-948.3" x1="1287.4" class="st3"/>
		<line y2="2028.3" x2="1317.2" y1="-948.3" x1="1317.2" class="st3"/>
		<line y2="2028.3" x2="1346.9" y1="-948.3" x1="1346.9" class="st3"/>
		<line y2="2028.3" x2="1376.7" y1="-948.3" x1="1376.7" class="st3"/>
		<line y2="2028.3" x2="1406.5" y1="-948.3" x1="1406.5" class="st3"/>
		<line y2="2028.3" x2="1436.2" y1="-948.3" x1="1436.2" class="st3"/>
		<line y2="2028.3" x2="1466" y1="-948.3" x1="1466" class="st3"/>
		<line y2="2028.3" x2="1495.8" y1="-948.3" x1="1495.8" class="st3"/>
		<line y2="2028.3" x2="1525.5" y1="-948.3" x1="1525.5" class="st3"/>
		<line y2="2028.3" x2="1555.3" y1="-948.3" x1="1555.3" class="st3"/>
		<line y2="2028.3" x2="1585.1" y1="-948.3" x1="1585.1" class="st3"/>
		<line y2="2028.3" x2="1614.8" y1="-948.3" x1="1614.8" class="st3"/>
		<line y2="2028.3" x2="1644.6" y1="-948.3" x1="1644.6" class="st3"/>
		<line y2="2028.3" x2="1674.4" y1="-948.3" x1="1674.4" class="st3"/>
		<line y2="2028.3" x2="1704.1" y1="-948.3" x1="1704.1" class="st3"/>
		<line y2="2028.3" x2="1733.9" y1="-948.3" x1="1733.9" class="st3"/>
		<line y2="2028.3" x2="1763.7" y1="-948.3" x1="1763.7" class="st3"/>
		<line y2="2028.3" x2="1793.4" y1="-948.3" x1="1793.4" class="st3"/>
		<line y2="2028.3" x2="1823.2" y1="-948.3" x1="1823.2" class="st3"/>
		<line y2="2028.3" x2="1853" y1="-948.3" x1="1853" class="st3"/>
		<line y2="2028.3" x2="1882.7" y1="-948.3" x1="1882.7" class="st3"/>
		<line y2="2028.3" x2="1912.5" y1="-948.3" x1="1912.5" class="st3"/>
	</g>
	<g class="st2" display="inline">
		<line y2="21" x2="-1058.1" y1="-1467.2" x1="1519.6" class="st3"/>
		<line y2="46.8" x2="-1043.2" y1="-1441.4" x1="1534.5" class="st3"/>
		<line y2="72.6" x2="-1028.4" y1="-1415.7" x1="1549.4" class="st3"/>
		<line y2="98.4" x2="-1013.5" y1="-1389.9" x1="1564.3" class="st3"/>
		<line y2="124.1" x2="-998.6" y1="-1364.1" x1="1579.2" class="st3"/>
		<line y2="149.9" x2="-983.7" y1="-1338.3" x1="1594" class="st3"/>
		<line y2="175.7" x2="-968.8" y1="-1312.6" x1="1608.9" class="st3"/>
		<line y2="201.5" x2="-953.9" y1="-1286.8" x1="1623.8" class="st3"/>
		<line y2="227.3" x2="-939.1" y1="-1261" x1="1638.7" class="st3"/>
		<line y2="253" x2="-924.2" y1="-1235.2" x1="1653.6" class="st3"/>
		<line y2="278.8" x2="-909.3" y1="-1209.4" x1="1668.4" class="st3"/>
		<line y2="304.6" x2="-894.4" y1="-1183.7" x1="1683.3" class="st3"/>
		<line y2="330.4" x2="-879.5" y1="-1157.9" x1="1698.2" class="st3"/>
		<line y2="356.1" x2="-864.6" y1="-1132.1" x1="1713.1" class="st3"/>
		<line y2="381.9" x2="-849.8" y1="-1106.3" x1="1728" class="st3"/>
		<line y2="407.7" x2="-834.9" y1="-1080.6" x1="1742.9" class="st3"/>
		<line y2="433.5" x2="-820" y1="-1054.8" x1="1757.7" class="st3"/>
		<line y2="459.3" x2="-805.1" y1="-1029" x1="1772.6" class="st3"/>
		<line y2="485" x2="-790.2" y1="-1003.2" x1="1787.5" class="st3"/>
		<line y2="510.8" x2="-775.3" y1="-977.5" x1="1802.4" class="st3"/>
		<line y2="536.6" x2="-760.5" y1="-951.7" x1="1817.3" class="st3"/>
		<line y2="562.4" x2="-745.6" y1="-925.9" x1="1832.2" class="st3"/>
		<line y2="588.1" x2="-730.7" y1="-900.1" x1="1847" class="st3"/>
		<line y2="613.9" x2="-715.8" y1="-874.3" x1="1861.9" class="st3"/>
		<line y2="639.7" x2="-700.9" y1="-848.6" x1="1876.8" class="st3"/>
		<line y2="665.5" x2="-686.1" y1="-822.8" x1="1891.7" class="st3"/>
		<line y2="691.2" x2="-671.2" y1="-797" x1="1906.6" class="st3"/>
		<line y2="717" x2="-656.3" y1="-771.2" x1="1921.5" class="st3"/>
		<line y2="742.8" x2="-641.4" y1="-745.5" x1="1936.3" class="st3"/>
		<line y2="768.6" x2="-626.5" y1="-719.7" x1="1951.2" class="st3"/>
		<line y2="794.4" x2="-611.6" y1="-693.9" x1="1966.1" class="st3"/>
		<line y2="820.1" x2="-596.8" y1="-668.1" x1="1981" class="st3"/>
		<line y2="845.9" x2="-581.9" y1="-642.3" x1="1995.9" class="st3"/>
		<line y2="871.7" x2="-567" y1="-616.6" x1="2010.7" class="st3"/>
		<line y2="897.5" x2="-552.1" y1="-590.8" x1="2025.6" class="st3"/>
		<line y2="923.2" x2="-537.2" y1="-565" x1="2040.5" class="st3"/>
		<line y2="949" x2="-522.3" y1="-539.2" x1="2055.4" class="st3"/>
		<line y2="974.8" x2="-507.5" y1="-513.5" x1="2070.3" class="st3"/>
		<line y2="1000.6" x2="-492.6" y1="-487.7" x1="2085.2" class="st3"/>
		<line y2="1026.4" x2="-477.7" y1="-461.9" x1="2100" class="st3"/>
		<line y2="1052.1" x2="-462.8" y1="-436.1" x1="2114.9" class="st3"/>
		<line y2="1077.9" x2="-447.9" y1="-410.3" x1="2129.8" class="st3"/>
		<line y2="1103.7" x2="-433" y1="-384.6" x1="2144.7" class="st3"/>
		<line y2="1129.5" x2="-418.2" y1="-358.8" x1="2159.6" class="st3"/>
		<line y2="1155.2" x2="-403.3" y1="-333" x1="2174.5" class="st3"/>
		<line y2="1181" x2="-388.4" y1="-307.2" x1="2189.3" class="st3"/>
		<line y2="1206.8" x2="-373.5" y1="-281.5" x1="2204.2" class="st3"/>
		<line y2="1232.6" x2="-358.6" y1="-255.7" x1="2219.1" class="st3"/>
		<line y2="1258.4" x2="-343.8" y1="-229.9" x1="2234" class="st3"/>
		<line y2="1284.1" x2="-328.9" y1="-204.1" x1="2248.9" class="st3"/>
		<line y2="1309.9" x2="-314" y1="-178.4" x1="2263.8" class="st3"/>
		<line y2="1335.7" x2="-299.1" y1="-152.6" x1="2278.6" class="st3"/>
		<line y2="1361.5" x2="-284.2" y1="-126.8" x1="2293.5" class="st3"/>
		<line y2="1387.2" x2="-269.3" y1="-101" x1="2308.4" class="st3"/>
		<line y2="1413" x2="-254.5" y1="-75.2" x1="2323.3" class="st3"/>
		<line y2="1438.8" x2="-239.6" y1="-49.5" x1="2338.2" class="st3"/>
		<line y2="1464.6" x2="-224.7" y1="-23.7" x1="2353" class="st3"/>
		<line y2="1490.3" x2="-209.8" y1="2.1" x1="2367.9" class="st3"/>
		<line y2="1516.1" x2="-194.9" y1="27.9" x1="2382.8" class="st3"/>
		<line y2="1541.9" x2="-180" y1="53.6" x1="2397.7" class="st3"/>
		<line y2="1567.7" x2="-165.2" y1="79.4" x1="2412.6" class="st3"/>
		<line y2="1593.5" x2="-150.3" y1="105.2" x1="2427.5" class="st3"/>
		<line y2="1619.2" x2="-135.4" y1="131" x1="2442.3" class="st3"/>
		<line y2="1645" x2="-120.5" y1="156.8" x1="2457.2" class="st3"/>
		<line y2="1670.8" x2="-105.6" y1="182.5" x1="2472.1" class="st3"/>
		<line y2="1696.6" x2="-90.7" y1="208.3" x1="2487" class="st3"/>
		<line y2="1722.3" x2="-75.9" y1="234.1" x1="2501.9" class="st3"/>
		<line y2="1748.1" x2="-61" y1="259.9" x1="2516.8" class="st3"/>
		<line y2="1773.9" x2="-46.1" y1="285.6" x1="2531.6" class="st3"/>
		<line y2="1799.7" x2="-31.2" y1="311.4" x1="2546.5" class="st3"/>
		<line y2="1825.5" x2="-16.3" y1="337.2" x1="2561.4" class="st3"/>
		<line y2="1851.2" x2="-1.5" y1="363" x1="2576.3" class="st3"/>
		<line y2="1877" x2="13.4" y1="388.8" x1="2591.2" class="st3"/>
		<line y2="1902.8" x2="28.3" y1="414.5" x1="2606.1" class="st3"/>
		<line y2="1928.6" x2="43.2" y1="440.3" x1="2620.9" class="st3"/>
		<line y2="1954.3" x2="58.1" y1="466.1" x1="2635.8" class="st3"/>
		<line y2="1980.1" x2="73" y1="491.9" x1="2650.7" class="st3"/>
		<line y2="2005.9" x2="87.8" y1="517.6" x1="2665.6" class="st3"/>
		<line y2="2031.7" x2="102.7" y1="543.4" x1="2680.5" class="st3"/>
		<line y2="2057.5" x2="117.6" y1="569.2" x1="2695.3" class="st3"/>
		<line y2="2083.2" x2="132.5" y1="595" x1="2710.2" class="st3"/>
		<line y2="2109" x2="147.4" y1="620.7" x1="2725.1" class="st3"/>
		<line y2="2134.8" x2="162.3" y1="646.5" x1="2740" class="st3"/>
		<line y2="2160.6" x2="177.1" y1="672.3" x1="2754.9" class="st3"/>
		<line y2="2186.3" x2="192" y1="698.1" x1="2769.8" class="st3"/>
		<line y2="2212.1" x2="206.9" y1="723.9" x1="2784.6" class="st3"/>
		<line y2="2237.9" x2="221.8" y1="749.6" x1="2799.5" class="st3"/>
		<line y2="2263.7" x2="236.7" y1="775.4" x1="2814.4" class="st3"/>
		<line y2="2289.4" x2="251.6" y1="801.2" x1="2829.3" class="st3"/>
		<line y2="2315.2" x2="266.4" y1="827" x1="2844.2" class="st3"/>
		<line y2="2341" x2="281.3" y1="852.7" x1="2859.1" class="st3"/>
		<line y2="2366.8" x2="296.2" y1="878.5" x1="2873.9" class="st3"/>
		<line y2="2392.6" x2="311.1" y1="904.3" x1="2888.8" class="st3"/>
		<line y2="2418.3" x2="326" y1="930.1" x1="2903.7" class="st3"/>
		<line y2="2444.1" x2="340.8" y1="955.9" x1="2918.6" class="st3"/>
		<line y2="2469.9" x2="355.7" y1="981.6" x1="2933.5" class="st3"/>
		<line y2="2495.7" x2="370.6" y1="1007.4" x1="2948.4" class="st3"/>
		<line y2="2521.4" x2="385.5" y1="1033.2" x1="2963.2" class="st3"/>
		<line y2="2547.2" x2="400.4" y1="1059" x1="2978.1" class="st3"/>
	</g>
	<g class="st2" display="inline">
		<line y2="21" x2="2978.1" y1="-1467.2" x1="400.4" class="st3"/>
		<line y2="46.8" x2="2963.2" y1="-1441.4" x1="385.5" class="st3"/>
		<line y2="72.6" x2="2948.4" y1="-1415.7" x1="370.6" class="st3"/>
		<line y2="98.4" x2="2933.5" y1="-1389.9" x1="355.7" class="st3"/>
		<line y2="124.1" x2="2918.6" y1="-1364.1" x1="340.8" class="st3"/>
		<line y2="149.9" x2="2903.7" y1="-1338.3" x1="326" class="st3"/>
		<line y2="175.7" x2="2888.8" y1="-1312.6" x1="311.1" class="st3"/>
		<line y2="201.5" x2="2873.9" y1="-1286.8" x1="296.2" class="st3"/>
		<line y2="227.3" x2="2859.1" y1="-1261" x1="281.3" class="st3"/>
		<line y2="253" x2="2844.2" y1="-1235.2" x1="266.4" class="st3"/>
		<line y2="278.8" x2="2829.3" y1="-1209.4" x1="251.6" class="st3"/>
		<line y2="304.6" x2="2814.4" y1="-1183.7" x1="236.7" class="st3"/>
		<line y2="330.4" x2="2799.5" y1="-1157.9" x1="221.8" class="st3"/>
		<line y2="356.1" x2="2784.6" y1="-1132.1" x1="206.9" class="st3"/>
		<line y2="381.9" x2="2769.8" y1="-1106.3" x1="192" class="st3"/>
		<line y2="407.7" x2="2754.9" y1="-1080.6" x1="177.1" class="st3"/>
		<line y2="433.5" x2="2740" y1="-1054.8" x1="162.3" class="st3"/>
		<line y2="459.3" x2="2725.1" y1="-1029" x1="147.4" class="st3"/>
		<line y2="485" x2="2710.2" y1="-1003.2" x1="132.5" class="st3"/>
		<line y2="510.8" x2="2695.3" y1="-977.5" x1="117.6" class="st3"/>
		<line y2="536.6" x2="2680.5" y1="-951.7" x1="102.7" class="st3"/>
		<line y2="562.4" x2="2665.6" y1="-925.9" x1="87.8" class="st3"/>
		<line y2="588.1" x2="2650.7" y1="-900.1" x1="73" class="st3"/>
		<line y2="613.9" x2="2635.8" y1="-874.3" x1="58.1" class="st3"/>
		<line y2="639.7" x2="2620.9" y1="-848.6" x1="43.2" class="st3"/>
		<line y2="665.5" x2="2606.1" y1="-822.8" x1="28.3" class="st3"/>
		<line y2="691.2" x2="2591.2" y1="-797" x1="13.4" class="st3"/>
		<line y2="717" x2="2576.3" y1="-771.2" x1="-1.5" class="st3"/>
		<line y2="742.8" x2="2561.4" y1="-745.5" x1="-16.3" class="st3"/>
		<line y2="768.6" x2="2546.5" y1="-719.7" x1="-31.2" class="st3"/>
		<line y2="794.4" x2="2531.6" y1="-693.9" x1="-46.1" class="st3"/>
		<line y2="820.1" x2="2516.8" y1="-668.1" x1="-61" class="st3"/>
		<line y2="845.9" x2="2501.9" y1="-642.3" x1="-75.9" class="st3"/>
		<line y2="871.7" x2="2487" y1="-616.6" x1="-90.7" class="st3"/>
		<line y2="897.5" x2="2472.1" y1="-590.8" x1="-105.6" class="st3"/>
		<line y2="923.2" x2="2457.2" y1="-565" x1="-120.5" class="st3"/>
		<line y2="949" x2="2442.3" y1="-539.2" x1="-135.4" class="st3"/>
		<line y2="974.8" x2="2427.5" y1="-513.5" x1="-150.3" class="st3"/>
		<line y2="1000.6" x2="2412.6" y1="-487.7" x1="-165.2" class="st3"/>
		<line y2="1026.4" x2="2397.7" y1="-461.9" x1="-180" class="st3"/>
		<line y2="1052.1" x2="2382.8" y1="-436.1" x1="-194.9" class="st3"/>
		<line y2="1077.9" x2="2367.9" y1="-410.3" x1="-209.8" class="st3"/>
		<line y2="1103.7" x2="2353" y1="-384.6" x1="-224.7" class="st3"/>
		<line y2="1129.5" x2="2338.2" y1="-358.8" x1="-239.6" class="st3"/>
		<line y2="1155.2" x2="2323.3" y1="-333" x1="-254.5" class="st3"/>
		<line y2="1181" x2="2308.4" y1="-307.2" x1="-269.3" class="st3"/>
		<line y2="1206.8" x2="2293.5" y1="-281.5" x1="-284.2" class="st3"/>
		<line y2="1232.6" x2="2278.6" y1="-255.7" x1="-299.1" class="st3"/>
		<line y2="1258.4" x2="2263.8" y1="-229.9" x1="-314" class="st3"/>
		<line y2="1284.1" x2="2248.9" y1="-204.1" x1="-328.9" class="st3"/>
		<line y2="1309.9" x2="2234" y1="-178.4" x1="-343.8" class="st3"/>
		<line y2="1335.7" x2="2219.1" y1="-152.6" x1="-358.6" class="st3"/>
		<line y2="1361.5" x2="2204.2" y1="-126.8" x1="-373.5" class="st3"/>
		<line y2="1387.2" x2="2189.3" y1="-101" x1="-388.4" class="st3"/>
		<line y2="1413" x2="2174.5" y1="-75.2" x1="-403.3" class="st3"/>
		<line y2="1438.8" x2="2159.6" y1="-49.5" x1="-418.2" class="st3"/>
		<line y2="1464.6" x2="2144.7" y1="-23.7" x1="-433" class="st3"/>
		<line y2="1490.3" x2="2129.8" y1="2.1" x1="-447.9" class="st3"/>
		<line y2="1516.1" x2="2114.9" y1="27.9" x1="-462.8" class="st3"/>
		<line y2="1541.9" x2="2100" y1="53.6" x1="-477.7" class="st3"/>
		<line y2="1567.7" x2="2085.2" y1="79.4" x1="-492.6" class="st3"/>
		<line y2="1593.5" x2="2070.3" y1="105.2" x1="-507.5" class="st3"/>
		<line y2="1619.2" x2="2055.4" y1="131" x1="-522.3" class="st3"/>
		<line y2="1645" x2="2040.5" y1="156.8" x1="-537.2" class="st3"/>
		<line y2="1670.8" x2="2025.6" y1="182.5" x1="-552.1" class="st3"/>
		<line y2="1696.6" x2="2010.7" y1="208.3" x1="-567" class="st3"/>
		<line y2="1722.3" x2="1995.9" y1="234.1" x1="-581.9" class="st3"/>
		<line y2="1748.1" x2="1981" y1="259.9" x1="-596.8" class="st3"/>
		<line y2="1773.9" x2="1966.1" y1="285.6" x1="-611.6" class="st3"/>
		<line y2="1799.7" x2="1951.2" y1="311.4" x1="-626.5" class="st3"/>
		<line y2="1825.5" x2="1936.3" y1="337.2" x1="-641.4" class="st3"/>
		<line y2="1851.2" x2="1921.5" y1="363" x1="-656.3" class="st3"/>
		<line y2="1877" x2="1906.6" y1="388.8" x1="-671.2" class="st3"/>
		<line y2="1902.8" x2="1891.7" y1="414.5" x1="-686.1" class="st3"/>
		<line y2="1928.6" x2="1876.8" y1="440.3" x1="-700.9" class="st3"/>
		<line y2="1954.3" x2="1861.9" y1="466.1" x1="-715.8" class="st3"/>
		<line y2="1980.1" x2="1847" y1="491.9" x1="-730.7" class="st3"/>
		<line y2="2005.9" x2="1832.2" y1="517.6" x1="-745.6" class="st3"/>
		<line y2="2031.7" x2="1817.3" y1="543.4" x1="-760.5" class="st3"/>
		<line y2="2057.5" x2="1802.4" y1="569.2" x1="-775.3" class="st3"/>
		<line y2="2083.2" x2="1787.5" y1="595" x1="-790.2" class="st3"/>
		<line y2="2109" x2="1772.6" y1="620.7" x1="-805.1" class="st3"/>
		<line y2="2134.8" x2="1757.7" y1="646.5" x1="-820" class="st3"/>
		<line y2="2160.6" x2="1742.9" y1="672.3" x1="-834.9" class="st3"/>
		<line y2="2186.3" x2="1728" y1="698.1" x1="-849.8" class="st3"/>
		<line y2="2212.1" x2="1713.1" y1="723.9" x1="-864.6" class="st3"/>
		<line y2="2237.9" x2="1698.2" y1="749.6" x1="-879.5" class="st3"/>
		<line y2="2263.7" x2="1683.3" y1="775.4" x1="-894.4" class="st3"/>
		<line y2="2289.4" x2="1668.4" y1="801.2" x1="-909.3" class="st3"/>
		<line y2="2315.2" x2="1653.6" y1="827" x1="-924.2" class="st3"/>
		<line y2="2341" x2="1638.7" y1="852.7" x1="-939.1" class="st3"/>
		<line y2="2366.8" x2="1623.8" y1="878.5" x1="-953.9" class="st3"/>
		<line y2="2392.6" x2="1608.9" y1="904.3" x1="-968.8" class="st3"/>
		<line y2="2418.3" x2="1594" y1="930.1" x1="-983.7" class="st3"/>
		<line y2="2444.1" x2="1579.2" y1="955.9" x1="-998.6" class="st3"/>
		<line y2="2469.9" x2="1564.3" y1="981.6" x1="-1013.5" class="st3"/>
		<line y2="2495.7" x2="1549.4" y1="1007.4" x1="-1028.4" class="st3"/>
		<line y2="2521.4" x2="1534.5" y1="1033.2" x1="-1043.2" class="st3"/>
		<line y2="2547.2" x2="1519.6" y1="1059" x1="-1058.1" class="st3"/>
	</g>
</g>
<g transform="translate(-.044554 14.666)"><polygon transform="matrix(1.3771 0 0 1.3658 -1297.4 -829.17)" class="st177" points="1038 674.9 1038 673.9 942.2 654.8 942.2 656.1 1006.1 693" fill="url(#SVGID_138_)"/><polygon transform="matrix(1.3771 0 0 1.3658 -1297.4 -829.17)" class="st178" points="942.2 654.8 974.1 636.4 1038 673.3 1006.1 691.7" fill="url(#SVGID_139_)"/><ellipse rx="20.931" ry="11.199" class="st172" cy="76.331" cx="64.505" stroke-width="1.3714" fill="#003437"/><ellipse rx="18.039" ry="9.697" class="st4" cy="76.331" cx="64.505" stroke-width="1.3714" fill="#fff"/><g aria-label="$" transform="matrix(.80608 .47262 -1.0225 .63139 -958.5 -465.53)" stroke-width="1.1432" fill="#003437"><path d="m1210.1-37.921h-0.9564l-0.01-2.8787q-1.0042-0.01913-2.0084-0.22953-1.0042-0.21997-2.0179-0.65034v-1.7215q0.9755 0.61208 1.9701 0.92769 1.0042 0.30604 2.0658 0.31561v-4.3611q-2.1136-0.3443-3.0795-1.1668-0.9564-0.82249-0.9564-2.2571 0-1.5589 1.0424-2.4579 1.0425-0.899 2.9935-1.0329v-2.2475h0.9564v2.2188q0.8894 0.03825 1.7215 0.19128 0.832 0.14346 1.6258 0.40168v1.6737q-0.7938-0.40168-1.6354-0.62165-0.8321-0.21997-1.7119-0.25822v4.0837q2.171 0.33473 3.1943 1.1955 1.0233 0.86074 1.0233 2.3527 0 1.6163-1.0903 2.5535-1.0807 0.92769-3.1273 1.0711zm-0.9564-10.243v-3.9212q-1.1094 0.12433-1.6928 0.63121t-0.5834 1.3485q0 0.82249 0.5356 1.2816 0.5451 0.45906 1.7406 0.6599zm0.9564 1.8363v4.1411q1.2146-0.16258 1.8267-0.68859 0.6216-0.52601 0.6216-1.3868 0-0.84162-0.5929-1.3389-0.5834-0.49732-1.8554-0.72685z" stroke-width="1.1432" fill="#003437"/></g></g><g transform="translate(-.044554 -12.681)"><polygon transform="matrix(1.3771 0 0 1.3658 -1297.4 -829.17)" class="st177" points="1038 674.9 1038 673.9 942.2 654.8 942.2 656.1 1006.1 693" fill="url(#SVGID_138_)"/><polygon transform="matrix(1.3771 0 0 1.3658 -1297.4 -829.17)" class="st178" points="974.1 636.4 1038 673.3 1006.1 691.7 942.2 654.8" fill="url(#SVGID_139_)"/><ellipse rx="20.931" ry="11.199" class="st172" cy="76.331" cx="64.505" stroke-width="1.3714" fill="#003437"/><ellipse rx="18.039" ry="9.697" class="st4" cy="76.331" cx="64.505" stroke-width="1.3714" fill="#fff"/><g aria-label="$" transform="matrix(.80608 .47262 -1.0225 .63139 -958.5 -465.53)" stroke-width="1.1432" fill="#003437"><path d="m1210.1-37.921h-0.9564l-0.01-2.8787q-1.0042-0.01913-2.0084-0.22953-1.0042-0.21997-2.0179-0.65034v-1.7215q0.9755 0.61208 1.9701 0.92769 1.0042 0.30604 2.0658 0.31561v-4.3611q-2.1136-0.3443-3.0795-1.1668-0.9564-0.82249-0.9564-2.2571 0-1.5589 1.0424-2.4579 1.0425-0.899 2.9935-1.0329v-2.2475h0.9564v2.2188q0.8894 0.03825 1.7215 0.19128 0.832 0.14346 1.6258 0.40168v1.6737q-0.7938-0.40168-1.6354-0.62165-0.8321-0.21997-1.7119-0.25822v4.0837q2.171 0.33473 3.1943 1.1955 1.0233 0.86074 1.0233 2.3527 0 1.6163-1.0903 2.5535-1.0807 0.92769-3.1273 1.0711zm-0.9564-10.243v-3.9212q-1.1094 0.12433-1.6928 0.63121t-0.5834 1.3485q0 0.82249 0.5356 1.2816 0.5451 0.45906 1.7406 0.6599zm0.9564 1.8363v4.1411q1.2146-0.16258 1.8267-0.68859 0.6216-0.52601 0.6216-1.3868 0-0.84162-0.5929-1.3389-0.5834-0.49732-1.8554-0.72685z" stroke-width="1.1432" fill="#003437"/></g></g><g transform="translate(-.044554 -40.029)"><polygon transform="matrix(1.3771 0 0 1.3658 -1297.4 -829.17)" class="st177" points="1038 673.9 942.2 654.8 942.2 656.1 1006.1 693 1038 674.9" fill="url(#SVGID_138_)"/><polygon transform="matrix(1.3771 0 0 1.3658 -1297.4 -829.17)" class="st178" points="1038 673.3 1006.1 691.7 942.2 654.8 974.1 636.4" fill="url(#SVGID_139_)"/><ellipse rx="20.931" ry="11.199" class="st172" cy="76.331" cx="64.505" stroke-width="1.3714" fill="#003437"/><ellipse rx="18.039" ry="9.697" class="st4" cy="76.331" cx="64.505" stroke-width="1.3714" fill="#fff"/><g aria-label="$" transform="matrix(.80608 .47262 -1.0225 .63139 -958.5 -465.53)" stroke-width="1.1432" fill="#003437"><path d="m1210.1-37.921h-0.9564l-0.01-2.8787q-1.0042-0.01913-2.0084-0.22953-1.0042-0.21997-2.0179-0.65034v-1.7215q0.9755 0.61208 1.9701 0.92769 1.0042 0.30604 2.0658 0.31561v-4.3611q-2.1136-0.3443-3.0795-1.1668-0.9564-0.82249-0.9564-2.2571 0-1.5589 1.0424-2.4579 1.0425-0.899 2.9935-1.0329v-2.2475h0.9564v2.2188q0.8894 0.03825 1.7215 0.19128 0.832 0.14346 1.6258 0.40168v1.6737q-0.7938-0.40168-1.6354-0.62165-0.8321-0.21997-1.7119-0.25822v4.0837q2.171 0.33473 3.1943 1.1955 1.0233 0.86074 1.0233 2.3527 0 1.6163-1.0903 2.5535-1.0807 0.92769-3.1273 1.0711zm-0.9564-10.243v-3.9212q-1.1094 0.12433-1.6928 0.63121t-0.5834 1.3485q0 0.82249 0.5356 1.2816 0.5451 0.45906 1.7406 0.6599zm0.9564 1.8363v4.1411q1.2146-0.16258 1.8267-0.68859 0.6216-0.52601 0.6216-1.3868 0-0.84162-0.5929-1.3389-0.5834-0.49732-1.8554-0.72685z" stroke-width="1.1432" fill="#003437"/></g></g></svg>
