<svg xmlns="http://www.w3.org/2000/svg" xml:space="preserve" version="1.1" y="0px" x="0px" viewBox="0 0 132 132">
  <defs>
    <linearGradient id="SVGID_132_" y2="685.42" gradientUnits="userSpaceOnUse" x2="1038" y1="685.42" x1="942.16">
      <stop stop-color="#7FFF8B" offset="0" />
      <stop stop-color="#60D679" offset=".1856" />
      <stop stop-color="#37A160" offset=".4588" />
      <stop stop-color="#197A4F" offset=".6955" />
      <stop stop-color="#076244" offset=".8838" />
      <stop stop-color="#005940" offset="1" />
    </linearGradient>
      <linearGradient id="SVGID_133_" y2="675.53" gradientUnits="userSpaceOnUse" x2="1038" y1="675.53" x1="942.16">
          <stop stop-color="#00B581" offset="0" />
          <stop stop-color="#09BA82" offset=".1414" />
          <stop stop-color="#21C884" offset=".3702" />
          <stop stop-color="#48DF87" offset=".658" />
          <stop stop-color="#7DFE8B" offset=".9906" />
          <stop stop-color="#7FFF8B" offset="1" />
      </linearGradient>
      <linearGradient id="SVGID_135_" y2="680.14" gradientUnits="userSpaceOnUse" x2="1038" y1="680.14" x1="942.16">
          <stop stop-color="#7FFF8B" offset="0" />
          <stop stop-color="#60D679" offset=".1856" />
          <stop stop-color="#37A160" offset=".4588" />
          <stop stop-color="#197A4F" offset=".6955" />
          <stop stop-color="#076244" offset=".8838" />
          <stop stop-color="#005940" offset="1" />
      </linearGradient>
      <linearGradient id="SVGID_136_" y2="670.24" gradientUnits="userSpaceOnUse" x2="1038" y1="670.24" x1="942.16">
          <stop stop-color="#00B581" offset="0" />
          <stop stop-color="#09BA82" offset=".1414" />
          <stop stop-color="#21C884" offset=".3702" />
          <stop stop-color="#48DF87" offset=".658" />
          <stop stop-color="#7DFE8B" offset=".9906" />
          <stop stop-color="#7FFF8B" offset="1" />
      </linearGradient>
      <linearGradient id="SVGID_138_" y2="673.93" gradientUnits="userSpaceOnUse" x2="1038" y1="673.93" x1="942.16">
          <stop stop-color="#7FFF8B" offset="0" />
          <stop stop-color="#60D679" offset=".1856" />
          <stop stop-color="#37A160" offset=".4588" />
          <stop stop-color="#197A4F" offset=".6955" />
          <stop stop-color="#076244" offset=".8838" />
          <stop stop-color="#005940" offset="1" />
      </linearGradient>
      <linearGradient id="SVGID_139_" y2="664.03" gradientUnits="userSpaceOnUse" x2="1038" y1="664.03" x1="942.16">
          <stop stop-color="#00B581" offset="0" />
          <stop stop-color="#09BA82" offset=".1414" />
          <stop stop-color="#21C884" offset=".3702" />
          <stop stop-color="#48DF87" offset=".658" />
          <stop stop-color="#7DFE8B" offset=".9906" />
          <stop stop-color="#7FFF8B" offset="1" />
      </linearGradient>
  </defs>

  <g id="billete1" transform="translate(-.044554 14.666)">
    <polygon transform="matrix(1.3771 0 0 1.3658 -1297.4 -829.17)" class="st177" points="1038 674.9 1038 673.9 942.2 654.8 942.2 656.1 1006.1 693" fill="url(#SVGID_138_)" />
    <polygon transform="matrix(1.3771 0 0 1.3658 -1297.4 -829.17)" class="st178" points="942.2 654.8 974.1 636.4 1038 673.3 1006.1 691.7" fill="url(#SVGID_139_)" />
    <ellipse rx="20.931" ry="11.199" class="st172" cy="76.331" cx="64.505" stroke-width="1.3714" fill="#003437" />
    <ellipse rx="18.039" ry="9.697" class="st4" cy="76.331" cx="64.505" stroke-width="1.3714" fill="#fff" />
    <g aria-label="$" transform="matrix(.80608 .47262 -1.0225 .63139 -958.5 -465.53)" stroke-width="1.1432" fill="#003437">
      <path d="m1210.1-37.921h-0.9564l-0.01-2.8787q-1.0042-0.01913-2.0084-0.22953-1.0042-0.21997-2.0179-0.65034v-1.7215q0.9755 0.61208 1.9701 0.92769 1.0042 0.30604 2.0658 0.31561v-4.3611q-2.1136-0.3443-3.0795-1.1668-0.9564-0.82249-0.9564-2.2571 0-1.5589 1.0424-2.4579 1.0425-0.899 2.9935-1.0329v-2.2475h0.9564v2.2188q0.8894 0.03825 1.7215 0.19128 0.832 0.14346 1.6258 0.40168v1.6737q-0.7938-0.40168-1.6354-0.62165-0.8321-0.21997-1.7119-0.25822v4.0837q2.171 0.33473 3.1943 1.1955 1.0233 0.86074 1.0233 2.3527 0 1.6163-1.0903 2.5535-1.0807 0.92769-3.1273 1.0711zm-0.9564-10.243v-3.9212q-1.1094 0.12433-1.6928 0.63121t-0.5834 1.3485q0 0.82249 0.5356 1.2816 0.5451 0.45906 1.7406 0.6599zm0.9564 1.8363v4.1411q1.2146-0.16258 1.8267-0.68859 0.6216-0.52601 0.6216-1.3868 0-0.84162-0.5929-1.3389-0.5834-0.49732-1.8554-0.72685z" stroke-width="1.1432" fill="#003437" />
    </g>
  </g>

  <g id="billete2" transform="translate(-.044554 -12.681)"><polygon transform="matrix(1.3771 0 0 1.3658 -1297.4 -829.17)" class="st177" points="1038 674.9 1038 673.9 942.2 654.8 942.2 656.1 1006.1 693" fill="url(#SVGID_138_)" />
    <polygon transform="matrix(1.3771 0 0 1.3658 -1297.4 -829.17)" class="st178" points="974.1 636.4 1038 673.3 1006.1 691.7 942.2 654.8" fill="url(#SVGID_139_)" />
    <ellipse rx="20.931" ry="11.199" class="st172" cy="76.331" cx="64.505" stroke-width="1.3714" fill="#003437" />
    <ellipse rx="18.039" ry="9.697" class="st4" cy="76.331" cx="64.505" stroke-width="1.3714" fill="#fff" />
    <g aria-label="$" transform="matrix(.80608 .47262 -1.0225 .63139 -958.5 -465.53)" stroke-width="1.1432" fill="#003437">
      <path d="m1210.1-37.921h-0.9564l-0.01-2.8787q-1.0042-0.01913-2.0084-0.22953-1.0042-0.21997-2.0179-0.65034v-1.7215q0.9755 0.61208 1.9701 0.92769 1.0042 0.30604 2.0658 0.31561v-4.3611q-2.1136-0.3443-3.0795-1.1668-0.9564-0.82249-0.9564-2.2571 0-1.5589 1.0424-2.4579 1.0425-0.899 2.9935-1.0329v-2.2475h0.9564v2.2188q0.8894 0.03825 1.7215 0.19128 0.832 0.14346 1.6258 0.40168v1.6737q-0.7938-0.40168-1.6354-0.62165-0.8321-0.21997-1.7119-0.25822v4.0837q2.171 0.33473 3.1943 1.1955 1.0233 0.86074 1.0233 2.3527 0 1.6163-1.0903 2.5535-1.0807 0.92769-3.1273 1.0711zm-0.9564-10.243v-3.9212q-1.1094 0.12433-1.6928 0.63121t-0.5834 1.3485q0 0.82249 0.5356 1.2816 0.5451 0.45906 1.7406 0.6599zm0.9564 1.8363v4.1411q1.2146-0.16258 1.8267-0.68859 0.6216-0.52601 0.6216-1.3868 0-0.84162-0.5929-1.3389-0.5834-0.49732-1.8554-0.72685z" stroke-width="1.1432" fill="#003437" />
    </g>
  </g>

  <g id="billete3" transform="translate(-.044554 -40.029)"><polygon transform="matrix(1.3771 0 0 1.3658 -1297.4 -829.17)" class="st177" points="1038 673.9 942.2 654.8 942.2 656.1 1006.1 693 1038 674.9" fill="url(#SVGID_138_)" />
    <polygon transform="matrix(1.3771 0 0 1.3658 -1297.4 -829.17)" class="st178" points="1038 673.3 1006.1 691.7 942.2 654.8 974.1 636.4" fill="url(#SVGID_139_)" />
    <ellipse rx="20.931" ry="11.199" class="st172" cy="76.331" cx="64.505" stroke-width="1.3714" fill="#003437" />
    <ellipse rx="18.039" ry="9.697" class="st4" cy="76.331" cx="64.505" stroke-width="1.3714" fill="#fff" />
    <g aria-label="$" transform="matrix(.80608 .47262 -1.0225 .63139 -958.5 -465.53)" stroke-width="1.1432" fill="#003437">
      <path d="m1210.1-37.921h-0.9564l-0.01-2.8787q-1.0042-0.01913-2.0084-0.22953-1.0042-0.21997-2.0179-0.65034v-1.7215q0.9755 0.61208 1.9701 0.92769 1.0042 0.30604 2.0658 0.31561v-4.3611q-2.1136-0.3443-3.0795-1.1668-0.9564-0.82249-0.9564-2.2571 0-1.5589 1.0424-2.4579 1.0425-0.899 2.9935-1.0329v-2.2475h0.9564v2.2188q0.8894 0.03825 1.7215 0.19128 0.832 0.14346 1.6258 0.40168v1.6737q-0.7938-0.40168-1.6354-0.62165-0.8321-0.21997-1.7119-0.25822v4.0837q2.171 0.33473 3.1943 1.1955 1.0233 0.86074 1.0233 2.3527 0 1.6163-1.0903 2.5535-1.0807 0.92769-3.1273 1.0711zm-0.9564-10.243v-3.9212q-1.1094 0.12433-1.6928 0.63121t-0.5834 1.3485q0 0.82249 0.5356 1.2816 0.5451 0.45906 1.7406 0.6599zm0.9564 1.8363v4.1411q1.2146-0.16258 1.8267-0.68859 0.6216-0.52601 0.6216-1.3868 0-0.84162-0.5929-1.3389-0.5834-0.49732-1.8554-0.72685z" stroke-width="1.1432" fill="#003437" />
    </g>
  </g>


  <script>
    let billete1 = document.getElementById('billete1')
    let billete2 = document.getElementById('billete2')
    let billete3 = document.getElementById('billete3')

    let originalValues = {
      billete3: getYTransformValue(billete3) * 0.5,
      billete2: getYTransformValue(billete2) * 0.5
    }

    window.setNewTransformValue = function (percentage, isDown) {
      let valueToMove1 = originalValues.billete3 * (percentage / 100)
      let valueToMove2 = originalValues.billete2 * (percentage / 100)

      if (isDown) {
        decreaseYValue(billete3, valueToMove1)
        decreaseYValue(billete2, valueToMove2)
      } else {
        increaseYValue(billete3, valueToMove1)
        increaseYValue(billete2, valueToMove2)
      }
    }

    function getYTransformValue (svgObject) {
      return svgObject.transform.baseVal[0].matrix.f
    }

    function decreaseYValue (svgObject, value) {
      svgObject.transform.baseVal[0].matrix.f -= value
    }

    function increaseYValue (svgObject, value) {
      svgObject.transform.baseVal[0].matrix.f += value
    }
  </script>

</svg>
