<svg xmlns="http://www.w3.org/2000/svg" viewBox="973.987 2833.524 44.217 79.132">
  <defs>
    <style>
      .cls-1 {
        fill: #00d3ff;
      }
    </style>
  </defs>
  <g id="Icono_Interactuar" data-name="Icono Interactuar" transform="translate(973.943 2833.506)">
    <path id="Path_107" data-name="Path 107" class="cls-1" d="M47.34,119.208a3.655,3.655,0,0,0-1.916.2V104.577a8.59,8.59,0,1,0-7.262,0v9.888A3.594,3.594,0,0,0,33.343,117a3.575,3.575,0,0,0-2.055-.247,3.684,3.684,0,0,0-2.9,2.735,3.575,3.575,0,0,0-2.055-.247,3.735,3.735,0,0,0-3.028,3.723V130.9a15.592,15.592,0,0,0,.479,3.878l1.591,6.365a13.39,13.39,0,0,1,.4,3.322v8.08a1.159,1.159,0,0,0,2.318,0v-8.08a15.593,15.593,0,0,0-.479-3.878l-1.591-6.365a13.39,13.39,0,0,1-.4-3.322v-7.972a1.433,1.433,0,0,1,1.082-1.437,1.343,1.343,0,0,1,1.082.294,1.316,1.316,0,0,1,.464,1,1.159,1.159,0,0,0,2.318,0v-2.348a1.433,1.433,0,0,1,1.082-1.437,1.343,1.343,0,0,1,1.082.294,1.316,1.316,0,0,1,.464,1,1.159,1.159,0,0,0,2.318,0v-2.348a1.433,1.433,0,0,1,1.082-1.437,1.343,1.343,0,0,1,1.082.294,1.316,1.316,0,0,1,.464,1,1.159,1.159,0,0,0,2.318,0v-20.9a1.433,1.433,0,0,1,1.082-1.437,1.343,1.343,0,0,1,1.082.294,1.316,1.316,0,0,1,.464,1v26a1.159,1.159,0,0,0,2.318,0,1.316,1.316,0,0,1,.464-1,1.343,1.343,0,0,1,1.082-.294,1.406,1.406,0,0,1,1.082,1.437v8.142a13.633,13.633,0,0,1-.324,2.966l-1.777,7.957a16.417,16.417,0,0,0-.386,3.476V152.5a1.159,1.159,0,0,0,2.318,0v-7.045a13.633,13.633,0,0,1,.324-2.966l1.777-7.957a16.417,16.417,0,0,0,.386-3.476v-8.127A3.68,3.68,0,0,0,47.34,119.208Zm-6.165-26a3.735,3.735,0,0,0-3.028,3.723V101.9a6.273,6.273,0,1,1,7.262,0V96.79a3.615,3.615,0,0,0-1.282-2.766A3.575,3.575,0,0,0,41.176,93.206Z" transform="translate(-19.663 -74.557)"/>
    <path id="Path_108" data-name="Path 108" class="cls-1" d="M1.072,109.573h.139a1.142,1.142,0,0,0,1.143-1.035,19.387,19.387,0,0,1,.4-2.3A1.158,1.158,0,1,0,.5,105.71a20.713,20.713,0,0,0-.448,2.565A1.139,1.139,0,0,0,1.072,109.573Z" transform="translate(0 -88.606)"/>
    <path id="Path_109" data-name="Path 109" class="cls-1" d="M252.128,67.446a1.17,1.17,0,0,0,1.051.664,1.1,1.1,0,0,0,.494-.108,1.162,1.162,0,0,0,.541-1.545,25.179,25.179,0,0,0-1.251-2.287,1.153,1.153,0,0,0-1.947,1.236C251.4,66.071,251.788,66.751,252.128,67.446Z" transform="translate(-212.044 -53.788)"/>
    <path id="Path_110" data-name="Path 110" class="cls-1" d="M43.39,30.373a1.179,1.179,0,0,0,.788-.309c.572-.525,1.174-1.035,1.792-1.5A1.16,1.16,0,0,0,44.6,26.7a23,23,0,0,0-2.009,1.669A1.167,1.167,0,0,0,42.525,30,1.22,1.22,0,0,0,43.39,30.373Z" transform="translate(-35.659 -22.369)"/>
    <path id="Path_111" data-name="Path 111" class="cls-1" d="M14.313,65.393a1.248,1.248,0,0,0,.525.124,1.163,1.163,0,0,0,1.035-.633,20.277,20.277,0,0,1,1.174-2.024,1.155,1.155,0,1,0-1.931-1.267A21.976,21.976,0,0,0,13.8,63.848,1.137,1.137,0,0,0,14.313,65.393Z" transform="translate(-11.525 -51.612)"/>
    <path id="Path_112" data-name="Path 112" class="cls-1" d="M268.75,109.165a22.988,22.988,0,0,1,.355,2.3,1.159,1.159,0,0,0,1.159,1.051h.108a1.163,1.163,0,0,0,1.051-1.267,24.16,24.16,0,0,0-.386-2.58,1.17,1.17,0,0,0-2.287.494Z" transform="translate(-227.167 -91.088)"/>
    <path id="Path_113" data-name="Path 113" class="cls-1" d="M177,8.617a18.6,18.6,0,0,1,2.178.834,1.274,1.274,0,0,0,.479.108,1.127,1.127,0,0,0,1.051-.68,1.154,1.154,0,0,0-.587-1.53,22.061,22.061,0,0,0-2.441-.927A1.149,1.149,0,1,0,177,8.617Z" transform="translate(-148.917 -5.372)"/>
    <path id="Path_114" data-name="Path 114" class="cls-1" d="M130.1,2.349a19.593,19.593,0,0,1,2.333.031h.077a1.16,1.16,0,0,0,.077-2.318,24.22,24.22,0,0,0-2.6-.015,1.152,1.152,0,1,0,.108,2.3Z" transform="translate(-108.94 0)"/>
    <path id="Path_115" data-name="Path 115" class="cls-1" d="M83.387,8.436a1.108,1.108,0,0,0,.448-.093,18.56,18.56,0,0,1,2.194-.788,1.159,1.159,0,0,0-.649-2.225c-.834.247-1.653.541-2.457.865a1.158,1.158,0,0,0-.618,1.514A1.18,1.18,0,0,0,83.387,8.436Z" transform="translate(-69.476 -4.45)"/>
    <path id="Path_116" data-name="Path 116" class="cls-1" d="M219.031,30.352a20.82,20.82,0,0,1,1.761,1.53,1.157,1.157,0,0,0,1.638-.031,1.166,1.166,0,0,0-.015-1.638,25.976,25.976,0,0,0-1.962-1.715,1.168,1.168,0,0,0-1.421,1.854Z" transform="translate(-184.772 -23.878)"/>
    <path id="Path_117" data-name="Path 117" class="cls-1" d="M2.788,155.891a19.433,19.433,0,0,1-.417-2.3,1.172,1.172,0,0,0-1.282-1.02,1.172,1.172,0,0,0-1.02,1.282,23.428,23.428,0,0,0,.464,2.565,1.156,1.156,0,0,0,1.128.881,1.7,1.7,0,0,0,.278-.031A1.122,1.122,0,0,0,2.788,155.891Z" transform="translate(-0.016 -128.976)"/>
    <path id="Path_118" data-name="Path 118" class="cls-1" d="M215.427,238.606a20.316,20.316,0,0,1-1.839,1.437,1.159,1.159,0,0,0,1.329,1.9,22.944,22.944,0,0,0,2.055-1.607,1.153,1.153,0,0,0,.093-1.638A1.167,1.167,0,0,0,215.427,238.606Z" transform="translate(-180.133 -201.479)"/>
    <path id="Path_119" data-name="Path 119" class="cls-1" d="M250.027,201.026a1.168,1.168,0,0,0-1.576.464c-.371.68-.788,1.344-1.221,1.993a1.143,1.143,0,0,0,.278,1.607,1.174,1.174,0,0,0,.664.216,1.119,1.119,0,0,0,.942-.494,23.233,23.233,0,0,0,1.375-2.225A1.15,1.15,0,0,0,250.027,201.026Z" transform="translate(-208.815 -169.832)"/>
    <path id="Path_120" data-name="Path 120" class="cls-1" d="M45.975,240.21a1.165,1.165,0,0,0,.7-2.1,20.97,20.97,0,0,1-1.808-1.483,1.159,1.159,0,1,0-1.576,1.7,22.823,22.823,0,0,0,2.009,1.653A1.13,1.13,0,0,0,45.975,240.21Z" transform="translate(-36.251 -199.792)"/>
    <path id="Path_121" data-name="Path 121" class="cls-1" d="M184.508,263.321a1.875,1.875,0,0,1-.216.077,1.165,1.165,0,0,0,.4,2.256,1.16,1.16,0,0,0,.4-.077c.077-.031.17-.062.247-.093a1.158,1.158,0,0,0,.664-1.5A1.133,1.133,0,0,0,184.508,263.321Z" transform="translate(-155.147 -222.548)"/>
    <path id="Path_122" data-name="Path 122" class="cls-1" d="M16.427,202.766a1.144,1.144,0,0,0,.649-.2,1.167,1.167,0,0,0,.324-1.607,22.11,22.11,0,0,1-1.19-2.008A1.161,1.161,0,1,0,14.14,200a20.347,20.347,0,0,0,1.329,2.24A1.138,1.138,0,0,0,16.427,202.766Z" transform="translate(-11.816 -167.663)"/>
    <path id="Path_123" data-name="Path 123" class="cls-1" d="M268.951,155.534a1.165,1.165,0,0,0-1.313.989,18.729,18.729,0,0,1-.464,2.287,1.16,1.16,0,0,0,.819,1.421.97.97,0,0,0,.294.046,1.138,1.138,0,0,0,1.112-.865,20.352,20.352,0,0,0,.51-2.565A1.132,1.132,0,0,0,268.951,155.534Z" transform="translate(-225.823 -131.477)"/>
    <path id="Path_124" data-name="Path 124" class="cls-1" d="M55.222,40.1a16.018,16.018,0,0,0-8,29.9,1.138,1.138,0,0,0,.572.155A1.152,1.152,0,0,0,48.377,68a13.7,13.7,0,1,1,13.7,0A1.153,1.153,0,0,0,63.24,70a16.024,16.024,0,0,0-8.019-29.9Z" transform="translate(-33.106 -33.889)"/>
  </g>
</svg>
