<svg xmlns="http://www.w3.org/2000/svg" viewBox="522.598 2965.448 36.552 21.209">
  <defs>
    <style>
      .cls-1 {
        fill: #00d3ff;
      }
    </style>
  </defs>
  <g id="Megafono" transform="translate(522.598 2965.461)">
    <path id="Path_97" data-name="Path 97" d="M235.132,172.9a.875.875,0,0,0-.591.241.823.823,0,0,0-.241.591.875.875,0,0,0,.241.59.823.823,0,0,0,.591.241.859.859,0,0,0,.59-.241.823.823,0,0,0,.241-.59.824.824,0,0,0-.832-.832Z" transform="translate(-214.814 -158.533)"/>
    <path id="Path_98" data-name="Path 98" class="cls-1" d="M24.867,6.94V.819A.831.831,0,0,0,23.728.046L9.39,5.818H4.774a4.778,4.778,0,0,0,0,9.556h.549v4.99a.834.834,0,0,0,.832.832H9.548a.834.834,0,0,0,.832-.832V15.773l13.34,5.364a.808.808,0,0,0,.308.058.851.851,0,0,0,.466-.141.831.831,0,0,0,.366-.69V14.242a3.744,3.744,0,0,0,.008-7.3Zm0,5.564V8.678a2.085,2.085,0,0,1,0,3.826Z" transform="translate(0 0)"/>
    <path id="Path_99" data-name="Path 99" class="cls-1" d="M368.439,117.8h-4.707a.832.832,0,1,0,0,1.663h4.707a.832.832,0,1,0,0-1.663Z" transform="translate(-332.718 -108.015)"/>
    <path id="Path_100" data-name="Path 100" class="cls-1" d="M347.3,44.954a.852.852,0,0,0,.591-.241l1.622-1.622a.829.829,0,0,0-1.173-1.173l-1.622,1.622a.828.828,0,0,0,0,1.173A.8.8,0,0,0,347.3,44.954Z" transform="translate(-317.659 -38.222)"/>
    <path id="Path_101" data-name="Path 101" class="cls-1" d="M347.991,173.118a.829.829,0,1,0-1.173,1.173l1.68,1.68a.817.817,0,0,0,.591.241.852.852,0,0,0,.591-.241.828.828,0,0,0,0-1.173Z" transform="translate(-317.751 -158.51)"/>
  </g>
</svg>
