<?xml version="1.0" encoding="UTF-8" standalone="no"?>
<svg xmlns="http://www.w3.org/2000/svg" version="1.1" viewBox="1062.966 1406.3 422.201 223.602">
 <defs>
  <style>.cls-1 {
        fill: #00cbff;
        opacity: 0.06;
      }</style>
 </defs>
 <path opacity="0.06" fill="#00cbff" d="m1366.3 1542.1c-25.311 0.4604-49.64-9.9469-70.237-24 23.574-29.653 59.037-55.795 98.937-51.221 16.518 1.538 37.515 7.9666 42.123 26.053-1.0679 26.331-27.828 42.64-51.431 46.909-6.3876 1.2853-12.885 1.9875-19.392 2.2566m-171.5 34.533c-26.309 8.8915-61.441 10.707-80.382-13.321-12.686-14.443-0.6079-34.474 13.986-41.808 23.8-14.715 53.546-18.005 80.055-9.2296 11.869 5.5047 38.233 9.7917 39.191 21.434-13.168 18.703-30.814 35.498-52.851 42.926m179.69-170.32c-39.833-0.3477-78.447 21.802-98.159 56.449-7.478 8.8284-10.758 28.573-16.342 32.804-26.16-26.152-61.757-44.927-99.544-42.558-43.94-0.031-85.371 33.006-96.393 75.232-5.2362 33.524 15.723 66.53 42.844 84.7 39.247 25.89 95.853 22.099 129.78-11.142 15.053-13.892 27.124-31.011 35.382-49.742 29.46 35.101 78.105 50.72 122.82 42.638 38.462-4.5199 75.092-30.403 86.347-68.383 15.19-47.372-17.272-102.09-64.853-114.55-13.546-4.1022-27.767-5.6247-41.887-5.4479z"/>
</svg>
