<svg xmlns="http://www.w3.org/2000/svg" viewBox="229.73 2945.979 30.639 21.678">
  <defs>
    <style>
      .cls-1 {
        fill: #00d3ff;
      }
    </style>
  </defs>
  <path id="Icono_Youtube" data-name="Icono Youtube" class="cls-1" d="M24.284,0H6.362A6.366,6.366,0,0,0,0,6.362v8.954a6.362,6.362,0,0,0,6.362,6.362H24.277a6.362,6.362,0,0,0,6.362-6.362V6.362A6.356,6.356,0,0,0,24.284,0ZM19.976,11.281l-8.383,4a.333.333,0,0,1-.479-.306V6.727a.334.334,0,0,1,.485-.3l8.383,4.248A.336.336,0,0,1,19.976,11.281Z" transform="translate(229.73 2945.979)"/>
</svg>
