<?xml version="1.0" encoding="UTF-8" standalone="no"?>
<svg id="svg32166" xmlns="http://www.w3.org/2000/svg" xml:space="preserve" version="1.1" y="0px" x="0px" viewBox="0 0 1650 1080">
  <style>
    #persona1, #persona2, #persona3, #persona4, #persona5, #persona6 {
      animation: bounce 2s linear 8s infinite;
    }

    #persona1 {
      animation-delay: 10.7s;
    }

    #persona2{
      animation-delay: 11.3s;
    }

    #persona3 {
      animation-delay: 8s;
    }

    #persona4 {
      animation-delay: 11.8s;
    }

    #persona5 {
      animation-delay: 9s;
    }

    #persona6 {
      animation-delay: 12s;
    }

    @keyframes bounce {
      from,
      20%,
      53%,
      80%,
      to {
        -webkit-animation-timing-function: cubic-bezier(0.215, 0.61, 0.355, 1);
        animation-timing-function: cubic-bezier(0.215, 0.61, 0.355, 1);
        -webkit-transform: translate3d(0, 0, 0);
        transform: translate3d(0, 0, 0);
      }

      40%,
      43% {
        -webkit-animation-timing-function: cubic-bezier(0.755, 0.05, 0.855, 0.06);
        animation-timing-function: cubic-bezier(0.755, 0.05, 0.855, 0.06);
        -webkit-transform: translate3d(0, -30px, 0);
        transform: translate3d(0, -30px, 0);
      }

      70% {
        -webkit-animation-timing-function: cubic-bezier(0.755, 0.05, 0.855, 0.06);
        animation-timing-function: cubic-bezier(0.755, 0.05, 0.855, 0.06);
        -webkit-transform: translate3d(0, -15px, 0);
        transform: translate3d(0, -15px, 0);
      }

      90% {
        -webkit-transform: translate3d(0, -4px, 0);
        transform: translate3d(0, -4px, 0);
      }
    }
  </style>

<g id="layer1">

  <g id="persona3">
    <g transform="matrix(1.3768 0 0 1.3768 -472.96 -180.33)">
  				<path id="path30410" d="m1163.4 634.9s-4.2-1.1-4.8-0.3c-0.6 0.7-2.2 2.3-0.6 4.4 1.6 2 3.7 2 5.2 3.3 1.6 1.3 2.1 1.3 2.8 2.1s4.6 2.5 5.5 1.9 2.3-1.3 2-3.1-2.9-4.3-3.2-4.4c-0.1-0.1-6.9-3.9-6.9-3.9z" class="st75" fill="#090e1f"/>
  				<path id="path30412" d="m1147.9 646.3s-3.9-1.3-4.9-0.2c-1.1 1.1-2 3.7 1.1 5.6 2.1 1.3 4.6 1.7 4.9 2.1s1.3 0.9 2.1 1.6 4.1 1.1 5.1 0.7 2.2-1 2.2-2.4-0.3-4-0.3-4z" class="st75" fill="#090e1f"/>
  				<g id="brazo_derecho_8_" class="st1" display="none">
  					<path id="path30414" d="m1169.7 577.4s-0.5 2.5-0.5 3.3-0.1 0.8 0 1.1c0.1 0.4 0.6 1.4 0.7 1.6s0 0.8-0.5 0.7c-0.1 0-1.2-2-1.3-2.5-0.1-0.4 0.6 1.5 0.7 1.8 0.2 0.3 0.7 1 0.6 1.2s-0.7 0.4-1.2-0.5-1-1.9-1-1.9 1 2.1 1.2 2.8c0.1 0.2 0.1 0.7-0.5 0.7-0.3 0-1.2-1.9-1.2-1.9s0.5 1.3 0.2 1.5c-0.2 0.1-0.5 0.2-1.4-1.4s-1.4-2.1-1.1-3.5c0.2-1.4 1.4-3.5 1.7-3.7s3.1 0.2 3.1 0.2z" display="inline" class="st76" fill="#eccdb9"/>
  					<path id="path30416" d="m1165.1 575.2s-0.3 0.8-0.1 1.1 2.2 0.5 2.8 1c0.6 0.4 2 0.3 2.3 0.1s0.6-2.1 0.5-2.4-5.3-0.4-5.3-0.4z" display="inline" class="st77" fill="#fff"/>
  					<path id="path30418" d="m1165.5 571.3s-0.6 4-0.5 4.1 2.3-0.3 4.1 0.4c0.8 0.3 1.7 0 2-0.8 0.9-2.5 2-6.3 2.3-8.4 0.4-2.8 3-22 2.7-24-0.2-2.1 0.9-5.6 0-7s-3.5-3.7-4.5-3.1-2.7 1-3.1 5c-0.4 3.8-3 33.8-3 33.8z" display="inline" class="st78" fill="#182653"/>
  				</g>
  				<g id="brazo_derecho_x5F_Celebracion_3_">
  					<path id="path30421" d="m1174.2 498.8s0.5-2.5 0.5-3.3 0.1-0.8 0-1.1c-0.1-0.4-0.6-1.4-0.7-1.6s0-0.8 0.5-0.7c0.1 0 1.2 2 1.3 2.5 0.1 0.4-0.6-1.5-0.7-1.8-0.2-0.3-0.7-1-0.6-1.2s0.7-0.4 1.2 0.5 1 1.9 1 1.9-1-2.1-1.2-2.8c-0.1-0.2-0.1-0.7 0.5-0.7 0.3 0 1.2 1.9 1.2 1.9s-0.5-1.3-0.2-1.5c0.2-0.1 0.5-0.2 1.4 1.4s1.4 2.1 1.1 3.5c-0.2 1.4-1.4 3.5-1.7 3.7s-3.1-0.2-3.1-0.2z" class="st79" fill="#eccdb9"/>
  					<path id="path30423" d="m1178.7 501s0.3-0.8 0.1-1.1-2.2-0.5-2.8-1-2-0.3-2.3-0.1-0.6 2.1-0.5 2.4 5.3 0.4 5.3 0.4z" class="st4" fill="#fff"/>
  					<path id="path30425" d="m1178.3 504.9s0.6-4 0.5-4.1-2.3 0.3-4.1-0.4c-0.8-0.3-1.7 0-2 0.8-0.9 2.5-2 6.3-2.3 8.4-0.4 2.8-3 22-2.7 24 0.2 2.1-0.9 5.6 0 7s3.5 3.7 4.5 3.1 2.7-1 3.1-5c0.4-3.8 3-33.8 3-33.8z" class="st80" fill="#182653"/>
  				</g>
  				<path id="path30428" d="m1173.1 581.7c0.4-0.1 1.1-0.4 1.1-0.4l-1.1-16.8s0.2-12.4 0.5-14.8c0.3-2.3 3.4-14.4-2.4-17.5-2.6 0.6-5.3 1.9-5.3 1.9s-0.7 3.1-3.9 3.2c-3-0.1-3.2 0.2-3.9-0.5-0.3 0.3-1.1 1.2-1.7 1.8-0.3 0.4-0.7 0.7-1.2 0.9-1.7 0.9-4.1 3.5-3.9 3.8 0.1 0.2-0.6 0.3-0.6 1-0.1 1.1-0.3 3-0.4 6.3-0.3 7.8 2 27.5 2.4 29.4 0.1 0.6-0.1 1.2-0.3 2.2-0.3 2.4-0.4 3.3-0.3 3.3 0.2 0 18.5 0.1 20.2-1.8s0.5-1.9 0.8-2z" class="st81" fill="#22366b"/>
  				<path id="path30430" d="m1173.2 582.3s-0.7 5.9-0.9 12.1-0.3 8.4 0.5 13.7 1.7 7.1 1.2 13c-0.6 5.9-0.9 7.7-1.2 10.4-0.4 2.8 0.5 8.6 0.4 9.6s-3.9 1.7-5.3 0.9c-1.3-0.8-5.8-5.1-5.5-6.1 0.2-1 2.1-2.9 2-7.8s-0.8-11.3-0.3-12.3c-0.2-0.7-0.2-2.2-0.8-3.2s-1.7-4.5-1.5-6c0-1.1-0.5-3.1-0.5-3.1s0.6-9.5 0.8-10.4 2.3-7.7 2.3-7.7z" class="st80" fill="#182653"/>
  				<path id="path30432" d="m1158.4 651.4s-2.7 2.3-6.3 0.6-4.7-2.3-4.8-3.3c-0.1-0.9 0.6-3.1 0.9-4.1s1.7-5.3 1.8-8.4 0.6-19.8 0.2-24.1-0.7-13.4-0.6-15.1 2.4-11.3 2.4-11.3l1.3-0.2 11.8-0.5v0.8s-0.8 4.8-1.6 6.3c-0.5 2.4-2.6 17.2-2.9 18.2-0.4 1-0.3 2.3-0.3 2.3s1.2 7.6 0.9 12-1.4 9.6-2 11.9-0.4 13.2-0.4 14c0 0-0.5 0.6-0.5 0.7" class="st82" fill="#1c2e63"/>
  					<path id="path30434" d="m1165.3 533.6s-5.7-15.1-7.5-15.2-3.2 0.5-3.2 0.5-1.5 1.7-1.4 2.4 0.8 1.2 0.5 1.8c-0.3 0.7-1.6 2-1.5 2.5s0 1.2 0.7 1.2c0 0.4 0.1 1.4 0.1 1.7-0.1 0.4 0 0.9 0.1 0.9s0.5 1 0.5 1.2c0 0.3-0.4 1 0.1 1.7 0.4 0.6 0.8 0.6 0.8 0.6s2.2 0.3 2.8 0c0.3 0.1 1.1 0.1 1.1 0.8s0.4 2.9 0.4 2.9v0.9l4.6 0.2s2.8-2.3 2.7-2.3c-0.2 0-0.8-1.8-0.8-1.8z" class="st79" fill="#eccdb9"/>
  					<path id="path30436" d="m1161 515.5c-0.1 0-3.5-0.7-4.4-0.9s-2.5-0.2-2.5 1.2 0.1 2.3 0.9 3.2c1.1 1.2 1.9 1.7 1.7 2-0.1 0.3-0.5 1.3 0.3 2.5 0.1 0.4-0.5 0.8-0.5 1.6v2.2c0.1 0.1 0.5 0.1 0.7 0.1s0.3-1.8 0.7-2.1 1.4-1 2 0.3 0.3 3.5 0.6 4.4c0.3 0.8 1.1 3.4 1.7 3.7s1.9 0.2 2.5-0.2 6.6-3.6 6.2-10.2c-0.1-1.2-2-7.5-7.2-7.5"/>
  				<g id="Brazo_izquierdo_x5F_Celebracion_13_">
  					<path id="path30438" d="m1145.5 507.2s-0.2-2.5-0.4-3.4c-0.2-0.8-0.1-0.8-0.3-1-0.2-0.4-1-1.2-1.1-1.4s-0.2-0.8 0.3-0.8c0.1 0 1.7 1.7 1.9 2.1s-0.9-1.3-1.2-1.6c-0.2-0.3-0.9-0.8-0.9-1.1 0-0.2 0.6-0.6 1.3 0.1s1.4 1.6 1.4 1.6-1.5-1.7-1.9-2.4c-0.1-0.2-0.3-0.7 0.3-0.8 0.3 0 1.6 1.6 1.6 1.6s-0.8-1.1-0.6-1.4c0.1-0.2 0.5-0.3 1.7 1 1.3 1.3 1.9 1.7 2 3.1s-0.4 3.7-0.7 4-3.1 0.6-3.1 0.6z" class="st79" fill="#eccdb9"/>
  					<path id="path30440" d="m1150.5 508.1s0.1-0.8-0.2-1.1-2.3 0-3-0.2-2 0.2-2.2 0.5 0 2.2 0.1 2.5c0.2 0.3 5.3-0.9 5.3-0.9z" class="st4" fill="#fff"/>
  					<path id="path30442" d="m1151.1 512s-0.4-4-0.6-4c-0.1 0-2.1 0.9-4 0.7-0.9-0.1-1.7 0.4-1.7 1.3-0.2 2.6-0.3 6.6 0 8.7 0.4 2.8 2.8 22 3.5 23.9 0.8 1.9 0.5 5.6 1.8 6.8 1.2 1.2 4.3 2.7 5.1 1.8s2.4-1.6 1.7-5.6c-0.6-3.9-5.8-33.6-5.8-33.6z" class="st80" fill="#182653"/>
  				</g>
  				<g id="Brazo_izquierdo_6_" class="st1" display="none">
  					<path id="path30445" d="m1149.3 586.3s-0.5 2.5-0.6 3.3c0 0.8-0.1 0.8 0 1.1 0.1 0.4 0.6 1.5 0.6 1.6 0.1 0.2 0 0.8-0.5 0.6-0.1 0-1.1-2.1-1.2-2.5s0.5 1.5 0.7 1.8c0.1 0.4 0.7 1 0.6 1.3-0.1 0.2-0.8 0.4-1.2-0.5-0.5-0.9-0.9-2-0.9-2s1 2.1 1.1 2.8c0 0.2 0.1 0.7-0.5 0.7-0.3 0-1.1-2-1.1-2s0.4 1.3 0.2 1.5c-0.2 0.1-0.5 0.2-1.4-1.4s-1.3-2.2-1-3.5c0.3-1.4 1.5-3.4 1.8-3.7 0.3-0.2 3.1 0.3 3.1 0.3z" display="inline" class="st76" fill="#eccdb9"/>
  					<path id="path30447" d="m1144.9 584s-0.3 0.8-0.2 1.1c0.2 0.3 2.2 0.6 2.8 1.1s2 0.3 2.3 0.1 0.7-2.1 0.6-2.4-5.3-0.6-5.3-0.6z" display="inline" class="st77" fill="#fff"/>
  					<path id="path30449" d="m1145.3 580.1s-0.7 4-0.6 4.1 2.3-0.3 4.1 0.5c0.8 0.3 1.7 0 2-0.8 1-2.5 2.2-6.2 2.5-8.4 0.4-2.8 3.6-21.9 3.4-23.9-0.2-2.1 1.1-5.6 0.2-7-0.9-1.5-3.4-3.8-4.4-3.2s-2.7 0.9-3.2 4.9c-0.5 3.9-4 33.8-4 33.8z" display="inline" class="st78" fill="#182653"/>
  				</g>
  		</g>
  </g>

  <g id="persona1">
    <g transform="matrix(1.3768 0 0 1.3768 -472.96 -180.33)">
			<path id="path30453" d="m1119.6 777.8s-4.2-1.1-4.8-0.3c-0.6 0.7-2.2 2.3-0.6 4.4 1.6 2 3.7 2 5.2 3.3 1.6 1.3 2.1 1.3 2.8 2.1s4.6 2.5 5.5 1.9 2.3-1.3 2-3.1c-0.3-1.9-2.9-4.3-3.2-4.4s-6.9-3.9-6.9-3.9z" class="st75" fill="#090e1f"/>
			<path id="path30455" d="m1104.1 789.2s-3.9-1.3-4.9-0.2c-1.1 1.1-2 3.7 1.1 5.6 2.1 1.3 4.6 1.7 4.9 2.1s1.3 0.9 2.1 1.6 4.1 1.1 5.1 0.7 2.2-1 2.2-2.4-0.3-4-0.3-4z" class="st75" fill="#090e1f"/>
			<g id="brazo_derecho_2_">
				<path id="path30457" d="m1125.9 720.3s-0.5 2.5-0.5 3.3-0.1 0.8 0 1.1c0.1 0.4 0.6 1.4 0.7 1.6s0 0.8-0.5 0.7c-0.1 0-1.2-2-1.3-2.5-0.1-0.4 0.6 1.5 0.7 1.8 0.2 0.3 0.7 1 0.6 1.2s-0.7 0.4-1.2-0.5-1-1.9-1-1.9 1 2.1 1.2 2.8c0.1 0.2 0.1 0.7-0.5 0.7-0.3 0-1.2-1.9-1.2-1.9s0.5 1.3 0.2 1.5c-0.2 0.1-0.5 0.2-1.4-1.4s-1.4-2.1-1.1-3.5c0.2-1.4 1.4-3.5 1.7-3.7s3.1 0.2 3.1 0.2z" class="st79" fill="#eccdb9"/>
				<path id="path30459" d="m1121.4 718.1s-0.3 0.8-0.1 1.1 2.2 0.5 2.8 1c0.6 0.4 2 0.3 2.3 0.1s0.6-2.1 0.5-2.4-5.3-0.4-5.3-0.4z" class="st4" fill="#fff"/>
				<path id="path30461" d="m1121.7 714.2s-0.6 4-0.5 4.1 2.3-0.3 4.1 0.4c0.8 0.3 1.7 0 2-0.8 0.9-2.5 2-6.3 2.3-8.4 0.4-2.8 3-22 2.7-24-0.2-2.1 0.9-5.6 0-7s-3.5-3.7-4.5-3.1-2.7 1-3.1 5c-0.4 3.8-3 33.8-3 33.8z" class="st80" fill="#182653"/>
			</g>
			<g id="brazo_derecho_x5F_Celebracion_2_" class="st1" display="none">
				<path id="path30464" d="m1130.4 641.7s0.5-2.5 0.5-3.3 0.1-0.8 0-1.1c-0.1-0.4-0.6-1.4-0.7-1.6s0-0.8 0.5-0.7c0.1 0 1.2 2 1.3 2.5 0.1 0.4-0.6-1.5-0.7-1.8-0.2-0.3-0.7-1-0.6-1.2s0.7-0.4 1.2 0.5 1 1.9 1 1.9-1-2.1-1.2-2.8c-0.1-0.2-0.1-0.7 0.5-0.7 0.3 0 1.2 1.9 1.2 1.9s-0.5-1.3-0.2-1.5c0.2-0.1 0.5-0.2 1.4 1.4s1.4 2.1 1.1 3.5c-0.2 1.4-1.4 3.5-1.7 3.7s-3.1-0.2-3.1-0.2z" display="inline" class="st76" fill="#eccdb9"/>
				<path id="path30466" d="m1134.9 643.9s0.3-0.8 0.1-1.1-2.2-0.5-2.8-1c-0.6-0.4-2-0.3-2.3-0.1s-0.6 2.1-0.5 2.4 5.3 0.4 5.3 0.4z" display="inline" class="st77" fill="#fff"/>
				<path id="path30468" d="m1134.6 647.8s0.6-4 0.5-4.1-2.3 0.3-4.1-0.4c-0.8-0.3-1.7 0-2 0.8-0.9 2.5-2 6.3-2.3 8.4-0.4 2.8-3 22-2.7 24s-0.9 5.6 0 7 3.5 3.7 4.5 3.1 2.7-1 3.1-5c0.3-3.8 3-33.8 3-33.8z" display="inline" class="st78" fill="#182653"/>
			</g>
			<path id="path30471" d="m1129.4 724.7c0.4-0.1 1.1-0.4 1.1-0.4l-1.1-16.8s0.2-12.4 0.5-14.8c0.3-2.3 3.4-14.4-2.4-17.5-2.6 0.6-5.3 1.9-5.3 1.9s-0.7 3.1-3.9 3.2c-3-0.1-3.2 0.2-3.9-0.5-0.3 0.3-1.1 1.2-1.7 1.8-0.3 0.4-0.7 0.7-1.2 0.9-1.7 0.9-4.1 3.5-3.9 3.8 0.1 0.2-0.6 0.3-0.6 1-0.1 1.1-0.3 3-0.4 6.3-0.3 7.8 2 27.5 2.4 29.4 0.1 0.6-0.1 1.2-0.3 2.2-0.3 2.4-0.4 3.3-0.3 3.3 0.2 0 18.5 0.1 20.2-1.8 1.6-1.7 0.4-1.9 0.8-2z" class="st81" fill="#22366b"/>
			<path id="path30473" d="m1129.4 725.2s-0.7 5.9-0.9 12.1c-0.2 6.1-0.3 8.4 0.5 13.7s1.7 7.1 1.2 13c-0.6 5.9-0.9 7.7-1.2 10.4-0.4 2.8 0.5 8.6 0.4 9.6s-3.9 1.7-5.3 0.9c-1.3-0.8-5.8-5.1-5.5-6.1 0.2-1 2.1-2.9 2-7.8s-0.8-11.3-0.3-12.3c-0.2-0.7-0.2-2.2-0.8-3.2s-1.7-4.5-1.5-6c0-1.1-0.5-3.1-0.5-3.1s0.6-9.5 0.8-10.4 2.3-7.7 2.3-7.7z" class="st80" fill="#182653"/>
			<path id="path30475" d="m1114.6 794.3s-2.7 2.3-6.3 0.6-4.7-2.3-4.8-3.3c-0.1-0.9 0.6-3.1 0.9-4.1s1.7-5.3 1.8-8.4c0.1-3 0.6-19.8 0.2-24.1s-0.7-13.4-0.6-15.1 2.4-11.3 2.4-11.3l1.3-0.2 11.8-0.5v0.8s-0.8 4.8-1.6 6.3c-0.5 2.4-2.6 17.2-2.9 18.2-0.4 1-0.3 2.3-0.3 2.3s1.2 7.6 0.9 12-1.4 9.6-2 11.9-0.4 13.2-0.4 14c0 0-0.5 0.6-0.5 0.7" class="st82" fill="#1c2e63"/>
				<path id="path30477" d="m1121.5 676.5s-5.7-15.1-7.5-15.2-3.2 0.5-3.2 0.5-1.5 1.7-1.4 2.4c0.1 0.6 0.8 1.2 0.5 1.8-0.3 0.7-1.6 2-1.5 2.5s0 1.2 0.7 1.2c0 0.4 0.1 1.4 0.1 1.7-0.1 0.4 0 0.9 0.1 0.9s0.5 1 0.5 1.2c0 0.3-0.4 1 0.1 1.7 0.4 0.6 0.8 0.6 0.8 0.6s2.2 0.3 2.8 0c0.3 0.1 1.1 0.1 1.1 0.8s0.4 2.9 0.4 2.9v0.9l4.6 0.2s2.8-2.3 2.7-2.3-0.8-1.8-0.8-1.8z" class="st79" fill="#eccdb9"/>
				<path id="path30479" d="m1117.2 658.4c-0.1 0-3.5-0.7-4.4-0.9s-2.5-0.2-2.5 1.2 0.1 2.3 0.9 3.2c1.1 1.2 1.9 1.7 1.7 2-0.1 0.3-0.5 1.3 0.3 2.5 0.1 0.4-0.5 0.8-0.5 1.6v2.2c0.1 0.1 0.5 0.1 0.7 0.1s0.3-1.8 0.7-2.1c0.3-0.3 1.4-1 2 0.3s0.3 3.5 0.6 4.4c0.3 0.8 1.1 3.4 1.7 3.7s1.9 0.2 2.5-0.2 6.6-3.6 6.2-10.2c-0.1-1.2-2-7.5-7.2-7.5"/>
			<g id="Brazo_izquierdo_x5F_Celebracion_12_" class="st1" display="none">
				<path id="path30481" d="m1101.8 650.1s-0.2-2.5-0.4-3.4c-0.2-0.8-0.1-0.8-0.3-1-0.2-0.4-1-1.2-1.1-1.4s-0.2-0.8 0.3-0.8c0.1 0 1.7 1.7 1.9 2.1s-0.9-1.3-1.2-1.6c-0.2-0.3-0.9-0.8-0.9-1.1s0.6-0.6 1.3 0.1 1.4 1.6 1.4 1.6-1.5-1.7-1.9-2.4c-0.1-0.2-0.3-0.7 0.3-0.8 0.3 0 1.6 1.6 1.6 1.6s-0.8-1.1-0.6-1.4c0.1-0.2 0.5-0.3 1.7 1 1.3 1.3 1.9 1.7 2 3.1s-0.4 3.7-0.7 4c-0.2 0.3-3.1 0.6-3.1 0.6z" display="inline" class="st76" fill="#eccdb9"/>
				<path id="path30483" d="m1106.7 651s0.1-0.8-0.2-1.1-2.3 0-3-0.2c-0.7-0.3-2 0.2-2.2 0.5s0 2.2 0.1 2.5c0.2 0.3 5.3-0.9 5.3-0.9z" display="inline" class="st77" fill="#fff"/>
				<path id="path30485" d="m1107.4 654.9s-0.4-4-0.6-4c-0.1 0-2.1 0.9-4 0.7-0.9-0.1-1.7 0.4-1.7 1.3-0.2 2.6-0.3 6.6 0 8.7 0.4 2.8 2.8 22 3.5 23.9 0.8 1.9 0.5 5.6 1.8 6.8 1.2 1.2 4.3 2.7 5.1 1.8s2.4-1.6 1.7-5.6c-0.7-3.9-5.8-33.6-5.8-33.6z" display="inline" class="st78" fill="#182653"/>
			</g>
			<g id="Brazo_izquierdo_5_">
				<path id="path30488" d="m1105.6 729.3s-0.5 2.5-0.6 3.3c0 0.8-0.1 0.8 0 1.1 0.1 0.4 0.6 1.5 0.6 1.6 0.1 0.2 0 0.8-0.5 0.6-0.1 0-1.1-2.1-1.2-2.5s0.5 1.5 0.7 1.8c0.1 0.4 0.7 1 0.6 1.3-0.1 0.2-0.8 0.4-1.2-0.5s-0.9-2-0.9-2 1 2.1 1.1 2.8c0 0.2 0.1 0.7-0.5 0.7-0.3 0-1.1-2-1.1-2s0.4 1.3 0.2 1.5c-0.2 0.1-0.5 0.2-1.4-1.4s-1.3-2.2-1-3.5c0.3-1.4 1.5-3.4 1.8-3.7 0.3-0.2 3.1 0.3 3.1 0.3z" class="st79" fill="#eccdb9"/>
				<path id="path30490" d="m1101.1 727s-0.3 0.8-0.2 1.1c0.2 0.3 2.2 0.6 2.8 1.1s2 0.3 2.3 0.1 0.7-2.1 0.6-2.4-5.3-0.6-5.3-0.6z" class="st4" fill="#fff"/>
				<path id="path30492" d="m1101.6 723s-0.7 4-0.6 4.1 2.3-0.3 4.1 0.5c0.8 0.3 1.7 0 2-0.8 1-2.5 2.2-6.2 2.5-8.4 0.4-2.8 3.6-21.9 3.4-23.9-0.2-2.1 1.1-5.6 0.2-7s-3.4-3.8-4.4-3.2-2.7 0.9-3.2 4.9c-0.6 3.9-4 33.8-4 33.8z" class="st80" fill="#182653"/>
			</g>
		</g>
  </g>

  <g id="persona5">
    <g transform="matrix(1.3768 0 0 1.3768 -472.96 -180.33)">
			<g>
				<path id="path30496" d="m1336.5 660.1s-4.2-1.1-4.8-0.3c-0.6 0.7-2.2 2.3-0.6 4.4 1.6 2 3.7 2 5.2 3.3 1.6 1.3 2.1 1.3 2.8 2.1s4.6 2.5 5.5 1.9 2.3-1.3 2-3.1-2.9-4.3-3.2-4.4c-0.1-0.1-6.9-3.9-6.9-3.9z" class="st75" fill="#090e1f"/>
				<path id="path30498" d="m1321 671.5s-3.9-1.3-4.9-0.2-2 3.7 1.1 5.6c2.1 1.3 4.6 1.7 4.9 2.1s1.3 0.9 2.1 1.6 4.1 1.1 5.1 0.7 2.2-1 2.2-2.4-0.3-4-0.3-4z" class="st75" fill="#090e1f"/>
				<g id="brazo_derecho_5_">
					<path id="path30500" d="m1342.8 602.6s-0.5 2.5-0.5 3.3-0.1 0.8 0 1.1c0.1 0.4 0.6 1.4 0.7 1.6s0 0.8-0.5 0.7c-0.1 0-1.2-2-1.3-2.5-0.1-0.4 0.6 1.5 0.7 1.8 0.2 0.3 0.7 1 0.6 1.2s-0.7 0.4-1.2-0.5-1-1.9-1-1.9 1 2.1 1.2 2.8c0.1 0.2 0.1 0.7-0.5 0.7-0.3 0-1.2-1.9-1.2-1.9s0.4 1.3 0.2 1.5c-0.2 0.1-0.5 0.2-1.4-1.4s-1.4-2.1-1.1-3.5c0.2-1.4 1.4-3.5 1.7-3.7s3.1 0.2 3.1 0.2z" class="st79" fill="#eccdb9"/>
					<path id="path30502" d="m1338.2 600.4s-0.3 0.8-0.1 1.1 2.2 0.5 2.8 1c0.6 0.4 2 0.3 2.3 0.1s0.6-2.1 0.5-2.4-5.3-0.4-5.3-0.4z" class="st4" fill="#fff"/>
					<path id="path30504" d="m1338.6 596.5s-0.6 4-0.5 4.1 2.3-0.3 4.1 0.4c0.8 0.3 1.7 0 2-0.8 0.9-2.5 2-6.3 2.3-8.4 0.4-2.8 3-22 2.7-24-0.2-2.1 0.9-5.6 0-7s-3.5-3.7-4.5-3.1-2.7 1-3.1 5c-0.4 3.8-3 33.8-3 33.8z" class="st80" fill="#182653"/>
				</g>
				<g id="brazo_derecho_4_" class="st1" display="none">
					<path id="path30507" d="m1347.2 524s0.5-2.5 0.5-3.3 0.1-0.8 0-1.1c-0.1-0.4-0.6-1.4-0.7-1.6s0-0.8 0.5-0.7c0.1 0 1.2 2 1.3 2.5 0.1 0.4-0.6-1.5-0.7-1.8-0.2-0.3-0.7-1-0.6-1.2s0.7-0.4 1.2 0.5 1 1.9 1 1.9-1-2.1-1.2-2.8c-0.1-0.2-0.1-0.7 0.5-0.7 0.3 0 1.2 1.9 1.2 1.9s-0.4-1.3-0.2-1.5c0.2-0.1 0.5-0.2 1.4 1.4s1.4 2.1 1.1 3.5-1.4 3.5-1.7 3.7-3.1-0.2-3.1-0.2z" display="inline" class="st76" fill="#eccdb9"/>
					<path id="path30509" d="m1351.8 526.1s0.3-0.8 0.1-1.1-2.2-0.5-2.8-1c-0.6-0.4-2-0.3-2.3-0.1s-0.6 2.1-0.5 2.4 5.3 0.4 5.3 0.4z" display="inline" class="st77" fill="#fff"/>
					<path id="path30511" d="m1351.4 530.1s0.6-4 0.5-4.1-2.3 0.3-4.1-0.4c-0.8-0.3-1.7 0-2 0.8-0.9 2.5-2 6.3-2.3 8.4-0.4 2.8-3 22-2.7 24 0.2 2.1-0.9 5.6 0 7s3.5 3.7 4.5 3.1 2.7-1 3.1-5c0.4-3.8 3-33.8 3-33.8z" display="inline" class="st78" fill="#182653"/>
				</g>
				<path id="path30514" d="m1346.2 606.9c0.4-0.1 1.1-0.4 1.1-0.4l-1.1-16.8s0.2-12.4 0.5-14.8 3.4-14.4-2.4-17.5c-2.6 0.6-5.3 1.9-5.3 1.9s-0.7 3.1-3.9 3.2c-3-0.1-3.2 0.2-3.9-0.5-0.3 0.3-1.1 1.2-1.7 1.8-0.3 0.4-0.7 0.7-1.2 0.9-1.7 0.9-4.1 3.5-3.9 3.8 0.1 0.2-0.6 0.3-0.6 1-0.1 1.1-0.3 3-0.4 6.3-0.3 7.8 2 27.5 2.4 29.4 0.1 0.6-0.1 1.2-0.3 2.2-0.3 2.4-0.4 3.3-0.3 3.3 0.2 0 18.5 0.1 20.2-1.8s0.4-1.9 0.8-2z" class="st81" fill="#22366b"/>
				<path id="path30516" d="m1346.3 607.5s-0.7 5.9-0.9 12.1c-0.2 6.1-0.3 8.4 0.5 13.7s1.7 7.1 1.2 13c-0.6 5.9-0.9 7.7-1.2 10.4-0.4 2.8 0.5 8.6 0.4 9.6s-3.9 1.7-5.3 0.9-5.8-5.1-5.5-6.1c0.2-1 2.1-2.9 2-7.8s-0.8-11.3-0.3-12.3c-0.2-0.7-0.2-2.2-0.8-3.2s-1.7-4.5-1.5-6c0-1.1-0.5-3.1-0.5-3.1s0.6-9.5 0.8-10.4 2.3-7.7 2.3-7.7z" class="st80" fill="#182653"/>
				<path id="path30518" d="m1331.5 676.6s-2.7 2.3-6.3 0.6c-3.7-1.7-4.7-2.3-4.8-3.3-0.1-0.9 0.6-3.1 0.9-4.1s1.7-5.3 1.8-8.4c0.1-3 0.6-19.8 0.2-24.1s-0.7-13.4-0.6-15.1 2.4-11.3 2.4-11.3l1.3-0.2 11.8-0.5v0.8s-0.8 4.8-1.6 6.3c-0.5 2.4-2.6 17.2-2.9 18.2-0.4 1-0.3 2.3-0.3 2.3s1.2 7.6 0.9 12-1.4 9.6-2 11.9-0.4 13.2-0.4 14c0 0-0.5 0.6-0.5 0.7" class="st82" fill="#1c2e63"/>
					<path id="path30520" d="m1338.4 558.8s-5.7-15.1-7.5-15.2-3.2 0.5-3.2 0.5-1.5 1.7-1.4 2.4 0.8 1.2 0.5 1.8c-0.3 0.7-1.6 2-1.5 2.5s0 1.2 0.7 1.2c0 0.4 0.1 1.4 0.1 1.7-0.1 0.4 0 0.9 0.1 0.9s0.5 1 0.5 1.2c0 0.3-0.4 1 0.1 1.7 0.4 0.6 0.8 0.6 0.8 0.6s2.2 0.3 2.8 0c0.3 0.1 1.1 0.1 1.1 0.8s0.4 2.9 0.4 2.9v0.9l4.6 0.2s2.8-2.3 2.7-2.3c-0.2 0-0.8-1.8-0.8-1.8z" class="st79" fill="#eccdb9"/>
					<path id="path30522" d="m1334 540.7c-0.1 0-3.5-0.7-4.4-0.9s-2.5-0.2-2.5 1.2c0.1 1.3 0.1 2.3 0.9 3.2 1.1 1.2 1.9 1.7 1.7 2-0.1 0.3-0.5 1.3 0.3 2.5 0.1 0.4-0.5 0.8-0.5 1.6v2.2c0.1 0.1 0.5 0.1 0.7 0.1s0.3-1.8 0.7-2.1c0.3-0.3 1.4-1 2 0.3s0.3 3.5 0.6 4.4c0.3 0.8 1.1 3.4 1.7 3.7s1.9 0.2 2.5-0.2 6.6-3.6 6.2-10.2c-0.1-1.2-2-7.5-7.2-7.5"/>
				<g id="Brazon_izquierdo_4_" class="st1" display="none">
					<path id="path30524" d="m1318.6 532.4s-0.2-2.5-0.4-3.4c-0.2-0.8-0.1-0.8-0.3-1-0.2-0.4-1-1.2-1.1-1.4s-0.2-0.8 0.3-0.8c0.1 0 1.7 1.7 1.9 2.1s-0.9-1.3-1.2-1.6c-0.2-0.3-0.9-0.8-0.9-1.1 0-0.2 0.6-0.6 1.3 0.1s1.4 1.6 1.4 1.6-1.5-1.7-1.9-2.4c-0.1-0.2-0.3-0.7 0.3-0.8 0.3 0 1.6 1.6 1.6 1.6s-0.8-1.1-0.6-1.4c0.1-0.2 0.5-0.3 1.7 1 1.3 1.3 1.9 1.7 2 3.1s-0.4 3.7-0.7 4c-0.2 0.3-3.1 0.6-3.1 0.6z" display="inline" class="st76" fill="#eccdb9"/>
					<path id="path30526" d="m1323.6 533.3s0.1-0.8-0.2-1.1c-0.2-0.2-2.3 0-3-0.2s-2 0.2-2.2 0.5 0 2.2 0.1 2.5c0.2 0.3 5.3-0.9 5.3-0.9z" display="inline" class="st77" fill="#fff"/>
					<path id="path30528" d="m1324.2 537.2s-0.4-4-0.6-4c-0.1 0-2.1 0.9-4 0.7-0.9-0.1-1.7 0.4-1.7 1.3-0.2 2.6-0.3 6.6 0 8.7 0.4 2.8 2.8 22 3.5 23.9 0.8 1.9 0.5 5.6 1.8 6.8 1.2 1.2 4.3 2.7 5.1 1.8 0.8-0.8 2.4-1.6 1.7-5.6-0.6-3.9-5.8-33.6-5.8-33.6z" display="inline" class="st78" fill="#182653"/>
				</g>
				<g id="Brazon_izquierdo_3_">
					<path id="path30531" d="m1322.4 611.5s-0.5 2.5-0.6 3.3-0.1 0.8 0 1.1c0.1 0.4 0.6 1.5 0.6 1.6 0.1 0.2 0 0.8-0.5 0.6-0.1 0-1.1-2.1-1.2-2.5s0.5 1.5 0.7 1.8c0.1 0.4 0.7 1 0.6 1.3s-0.8 0.4-1.2-0.5c-0.5-0.9-0.9-2-0.9-2s1 2.1 1.1 2.8c0 0.2 0.1 0.7-0.5 0.7-0.3 0-1.1-2-1.1-2s0.4 1.3 0.2 1.5c-0.2 0.1-0.5 0.2-1.4-1.4s-1.3-2.2-1-3.5c0.3-1.4 1.5-3.4 1.8-3.7s3.1 0.3 3.1 0.3z" class="st79" fill="#eccdb9"/>
					<path id="path30533" d="m1317.9 609.2s-0.3 0.8-0.2 1.1c0.2 0.3 2.2 0.6 2.8 1.1s2 0.3 2.3 0.1 0.7-2.1 0.6-2.4-5.3-0.6-5.3-0.6z" class="st4" fill="#fff"/>
					<path id="path30535" d="m1318.4 605.3s-0.7 4-0.6 4.1 2.3-0.3 4.1 0.5c0.8 0.3 1.7 0 2-0.8 1-2.5 2.2-6.2 2.5-8.4 0.4-2.8 3.6-21.9 3.4-23.9-0.2-2.1 1.1-5.6 0.2-7-0.9-1.5-3.4-3.8-4.4-3.2s-2.7 0.9-3.2 4.9-4 33.8-4 33.8z" class="st80" fill="#182653"/>
				</g>
			</g>
		</g>
  </g>

  <g id="persona4">
    <g transform="matrix(1.3768 0 0 1.3768 -472.96 -180.33)">
			<g id="Brazo_derecho">
				<g id="Brazo_derecho_x5F_celebracion_8_">
					<path id="path30541" d="m1200.2 557.8c-0.2 0.2-0.9 1.6-1.2 1.9s-0.9 1.2-0.9 1.7 0.2 2.2 0.7 2.4 0.5-0.1 0.5-0.5c0-0.5-0.1-1.5 0.1-1.7s0.7-0.2 0.7-0.2 0.4 0.6 0.5 0.8c0 0.2-0.6 2.3-0.4 2.6s0.9 0.7 1.8 0 2.9-2.1 3-3.2-0.2-2.6-0.5-3.3-2.9-2.6-2.9-2.6l-1.4 1.7z" class="st79" fill="#eccdb9"/>
					<path id="path30543" d="m1199.9 558.2s0.7-9.2 2.8-19.8c2.1-10.7 1.4-16.2 2-18.9s3.7-2.6 5-1.8-0.5 19.5-0.6 20.9-0.2 1.5-0.5 3.4-3.7 17.1-4.9 17-3.8-0.8-3.8-0.8z" class="st83" fill="#11253e"/>
				</g>
			</g>
			<g id="Cuerpo_6_">
				<path id="path30547" d="m1185.4 545.5s0.2 0 0 0c-0.4-2.8-3.1-4.9-3.7-5.8-0.8-1-0.7-1.8 0.5-3.4 1-1.3 1.7-3.7 1.9-5.4v-0.1l-0.1-1.8c0.2 0.4 0.4 0.7 0.5 1 0.7 1.6 0.9 14.9 0.9 15.5z" class="st84" fill="#38274b"/>
				<path id="path30549" d="m1190.8 619.6s-1.5-0.3-2-0.1-0.6 0.4-0.7 0.6c0 0.2 0.3 1.5 0.5 1.5s2.8-1.1 2.8-1.1z" class="st85" fill="#261b33"/>
				<path id="path30551" d="m1202.4 588.7s0.6 4.5 0.4 7.6c-0.3 3-0.5 5.4-0.9 6.7-0.3 1.3-0.8 5.4-0.5 7.7s0.6 6.2 0.7 7-0.4 2.7-0.5 2.6c-0.1 0-3.2 1.3-3.2 1.3s-1.4-1.2-1.8-2c-0.4-0.9-1.5-13.7-1.3-15.2s1.6-7.4 1.6-9-0.7-4.8-0.7-4.8z" class="st86" fill="#d1b5a4"/>
				<path id="path30553" d="m1187.7 589.8s0.7 6.7 1.1 9.6c0.5 2.9 0.9 5.9 1.1 7.5s0.9 3.9 0.9 5.5c0 1.7 0.1 3.2 0.1 4s0.4 2.2-0.2 3.2c-0.7 0.9-2 1.3-2.9 1.6s-1.8 0.1-2 0.3-1.1 0.3-1 0.7 0.1 1.9 1.8 2.1 8.6-0.7 9.1-1c0.5-0.2 1-2.6 1-2.8s0.1-1.5 0.1-1.5-0.8-11-0.5-12.5 2.6-11.5-0.3-16.2-6.7-4.6-6.7-4.6z" class="st87" fill="#c2a898"/>
				<g id="Brazo_derecho_x5F_celebracion_4_" class="st1" display="none">
					<path id="path30555" d="m1205.7 483.5c-0.2-0.2-0.6-1.7-0.9-2.1s-0.7-1.3-0.6-1.8c0.1-0.4 0.5-2.1 1-2.3s0.5 0.2 0.4 0.6-0.3 1.4-0.1 1.7c0.2 0.2 0.6 0.3 0.6 0.3s0.5-0.5 0.6-0.7-0.2-2.4 0-2.6c0.2-0.3 1-0.6 1.8 0.3 0.7 0.9 2.6 2.5 2.5 3.6s-0.6 2.5-1 3.2-3.2 2.1-3.2 2.1l-1.1-1.9z" display="inline" class="st76" fill="#eccdb9"/>
					<path id="path30557" d="m1205.5 483.1s-0.8 9.2-0.3 20c0.4 10.9-1.2 16.3-1 19s3.3 3.1 4.7 2.5 2.5-19.3 2.7-20.7 0-1.5 0-3.4c0-2-1-17.5-2.2-17.5-1.3-0.1-3.9 0.1-3.9 0.1z" display="inline" class="st88" fill="#11253e"/>
				</g>
				<path id="path30560" d="m1186.2 561.1s20.4-1.8 20.7-0.6c0.3 1.3 1.4 5.4 0.8 7.5-0.5 2.1-2.8 8.1-3.1 9.9s-1 7.1-0.9 9.8-7.1 3.3-7.4 3.3c-0.4 0-8.8-0.2-8.9-0.6s-0.7-5-0.9-7.6-1.5-11.7-1.6-12c-0.5-2 0.1-5.6 0.1-5.6z" class="st85" fill="#261b33"/>
				<path id="path30562" d="m1207.1 539.6c1.8-4.5 3-18.2 3-20.3-0.7-3-3.8-3-3.8-3l-20.3 8s-1 0.5-1.5 2.1c-0.6 1.8-0.4 2.7-0.4 2.7l1.3 16.5s2 11.5 0.6 15.8c-0.2 0.7 0 1.2 0.4 1.5 0.1 0.4 0.3 0.7 0.6 0.8 13.1 4.5 19.4-1.8 20-2s-0.1-5.6-0.7-8c-0.6-2.5 0.6-12.6 0.8-14.1z" class="st84" fill="#38274b"/>
				<path id="path30564" d="m1190.3 504.8s0.3 0.8 0 1.3-1.3 1.7-1.4 1.8c-0.2 0.2-0.8 1-0.3 1.3s0.8 0.4 0.7 0.7-0.1 0.9-0.1 1.4 0 0.7 0.1 0.9 0.2 0.7 0.2 1-0.3 1.1 0.2 1.6c0.5 0.4 2.4 1.3 2.7 1.3 0.2 0 1.3-11.7 1.3-11.7z" class="st79" fill="#eccdb9"/>
				<path id="path30566" d="m1189.8 504.6s-0.1-9.8 11.6-6.1c1.2 0.5 4.4 2 4 8.4-0.1 0.9-0.5 3.6-0.4 5.1 0.2 1.6 0.4 2.7 0.6 3.1 0 0 1 2.8 0.6 4.3s-0.7 7.8-5.3 8.1-6.8-0.7-7.6-1.6c-0.7-0.8-3.3-3.3-3.5-4.4-0.2-1.2 0.6-4.9 1.6-6.8s0.6-4.3 0.5-5.1c-0.2-0.9 0.2-3-2.1-5z"/>
				<path id="path30568" d="m1185.8 621.6s-0.8 1.2 0 1.5 5.5 0.6 7.1-0.2 3.4-2.2 3.6-3.4 0.5-0.5 0.5-0.5 2.1 1.5 1.1 4.7c-0.4 0.8-1 1.4-1.2 2.2s-0.7 1.9-0.9 2.1c-0.3 0-0.7 0.2-1.1-1.2s-0.9-2.3-3.1-2c-0.4 0.1-2.4 0.9-3 1.2-0.5 0.2-2.4 1.1-4.4-0.1-0.9-0.5-1.7-1.5-1.9-2.5-0.1-0.6-0.1-1.1 0.4-1.3 0.9-0.3 2.9-0.5 2.9-0.5z" class="st85" fill="#261b33"/>
				<path id="path30570" d="m1202.2 617.4s-0.3-0.7-0.5 0.5-2.1 2.6-3.6 3.4c-0.1 0.1-0.2 0.1-0.4 0.1 0 0.6-0.1 1.2-0.2 1.7 1.7-0.1 2.2 0.8 2.6 2 0.4 1.4 0.8 1.2 1.1 1.2 0.3-0.3 0.7-1.4 0.9-2.1s0.7-1.4 1.2-2.2c1.1-3-1.1-4.6-1.1-4.6z" class="st85" fill="#261b33"/>
				<g id="Brazo_izquierdo_x5F_Celebracion_6_" class="st1" display="none">
					<path id="path30572" d="m1185 489.1c0.1-0.3 0.3-1.8 0.5-2.2s0.5-1.5 0.3-1.9-0.9-2-1.4-2.1-0.5 0.3-0.3 0.7 0.6 1.3 0.5 1.6-0.6 0.4-0.6 0.4-0.6-0.4-0.7-0.6-0.3-2.4-0.5-2.6-1.1-0.4-1.7 0.6-2 3-1.7 4 1.1 2.3 1.6 3 3.6 1.5 3.6 1.5l0.7-2.1z" display="inline" class="st76" fill="#eccdb9"/>
					<path id="path30574" d="m1189.8 530c0.5-0.7-0.3-3.9-0.9-6.3-0.2-0.7-0.4-1.4-0.5-1.9-0.5-2.1-2.1-6.4-2.2-7.4-0.1-0.8-0.3-1.8-0.4-2.8-0.5-2.8-1-5.9-1-5.9-0.2-2.7-0.5-4.9-0.4-5.6 0.1-0.9-0.5-4.8 0.8-7.3 0.4-0.9 1.1-1.9 0.2-2.8-1-0.8-2.6-1.6-3.8-0.5-0.4-0.1-2.5 5.9-2.5 7.2 0.1 1.3-0.8 8-0.8 8s-0.2 2.2 0.3 4.9c0.5 2.8 1.5 8 1.9 9.8 0.4 1.7 1.6 12 6.5 12.3-0.1 0.2 2.4-0.1 2.8-1.7z" display="inline" class="st88" fill="#11253e"/>
				</g>
			</g>
			<g id="Brazo_izquierdo_2_">
				<g id="Brazo_izquierdo_x5F_Celebracion_11_">
					<path id="path30578" d="m1181.1 566.8c-0.2 0.2-0.7 1.7-1 2s-0.8 1.3-0.7 1.8c0.1 0.4 0.4 2.1 0.9 2.3s0.5-0.1 0.4-0.6c-0.1-0.4-0.3-1.4-0.1-1.7s0.7-0.2 0.7-0.2 0.5 0.5 0.5 0.7-0.3 2.4-0.1 2.6c0.1 0.3 1 0.6 1.8-0.2s2.7-2.5 2.6-3.5c-0.1-1.1-0.5-2.5-0.9-3.3s-3.2-2.2-3.2-2.2l-1.2 1.8z" class="st79" fill="#eccdb9"/>
					<path id="path30580" d="m1188.9 524.7c4.3 1.1 3.5 11.7 3.6 13.5 0 1.8-0.3 7.2-0.4 10s-0.8 4.9-0.8 4.9-2.4 6.4-2.6 7.6-3.7 6.6-4 6.4c-1.4 0.9-2.8-0.3-3.6-1.3-0.7-1 0.1-1.9 0.8-2.7 1.8-2.1 2.1-6.1 2.4-6.9 0.2-0.6 0.4-2.9 0.8-5.5 0 0 0.1-3.1 0.3-5.9 0.1-1 0.1-2 0.2-2.8 0.1-1-0.5-5.5-0.5-7.7v-2c-0.1-2.5-0.1-5.7 0.5-6.3 0-0.1 1.2-1.6 3.3-1.3z" class="st83" fill="#11253e"/>
				</g>
			</g>
		</g>
  </g>

  <g id="persona2">
    <g transform="matrix(1.3768 0 0 1.3768 -472.96 -180.33)">
			<g id="Brazo_derecho_2_">
				<path id="path30585" d="m1156.1 707.6c-0.2 0.2-0.9 1.6-1.2 1.9s-0.9 1.2-0.9 1.7 0.2 2.2 0.7 2.4 0.5-0.1 0.5-0.5c0-0.5-0.1-1.5 0.1-1.7s0.7-0.2 0.7-0.2 0.4 0.6 0.5 0.8c0 0.2-0.6 2.3-0.4 2.6s0.9 0.7 1.8 0 2.9-2.1 3-3.2-0.2-2.6-0.5-3.3-2.9-2.6-2.9-2.6l-1.4 1.7z" class="st79" fill="#eccdb9"/>
				<path id="path30587" d="m1155.8 708s0.7-9.2 2.8-19.8c2.1-10.7 1.4-16.2 2-18.9s3.7-2.6 5-1.8-0.5 19.5-0.6 20.9-0.2 1.5-0.5 3.4-3.7 17.1-4.9 17-3.8-0.8-3.8-0.8z" class="st83" fill="#11253e"/>
			</g>
			<g id="Cuerpo_2_">
				<path id="path30590" d="m1141.3 695.3s0.2 0 0 0c-0.4-2.8-3.1-4.9-3.7-5.8-0.8-1-0.7-1.8 0.5-3.4 1-1.3 1.7-3.7 1.9-5.4v-0.1l-0.1-1.8c0.2 0.4 0.4 0.7 0.5 1 0.7 1.6 0.9 14.9 0.9 15.5z" class="st84" fill="#38274b"/>
				<path id="path30592" d="m1146.8 769.4s-1.5-0.3-2-0.1-0.6 0.4-0.7 0.6c0 0.2 0.3 1.5 0.5 1.5s2.8-1.1 2.8-1.1z" class="st85" fill="#261b33"/>
				<path id="path30594" d="m1158.3 738.5s0.6 4.5 0.4 7.6c-0.3 3-0.5 5.4-0.9 6.7-0.3 1.3-0.8 5.4-0.5 7.7s0.6 6.2 0.7 7-0.4 2.7-0.5 2.6c-0.1 0-3.2 1.3-3.2 1.3s-1.4-1.2-1.8-2c-0.4-0.9-1.5-13.7-1.3-15.2s1.6-7.4 1.6-9-0.7-4.8-0.7-4.8z" class="st86" fill="#d1b5a4"/>
				<path id="path30596" d="m1143.7 739.6s0.7 6.7 1.1 9.6c0.5 2.9 0.9 5.9 1.1 7.5s0.9 3.9 0.9 5.5c0 1.7 0.1 3.2 0.1 4s0.4 2.2-0.2 3.2c-0.7 0.9-2 1.3-2.9 1.6s-1.8 0.1-2 0.3-1.1 0.3-1 0.7 0.1 1.9 1.8 2.1 8.6-0.7 9.1-1c0.5-0.2 1-2.6 1-2.8s0.1-1.5 0.1-1.5-0.8-11-0.5-12.5 2.6-11.5-0.3-16.2-6.7-4.6-6.7-4.6z" class="st87" fill="#c2a898"/>
				<g id="Brazo_derecho_x5F_celebracion_2_" class="st1" display="none">
					<path id="path30598" d="m1161.6 633.3c-0.2-0.2-0.6-1.7-0.9-2.1s-0.7-1.3-0.6-1.8c0.1-0.4 0.5-2.1 1-2.3s0.5 0.2 0.4 0.6-0.3 1.4-0.1 1.7c0.2 0.2 0.6 0.3 0.6 0.3s0.5-0.5 0.6-0.7-0.2-2.4 0-2.6c0.2-0.3 1-0.6 1.8 0.3 0.7 0.9 2.6 2.5 2.5 3.6s-0.6 2.5-1 3.2-3.2 2.1-3.2 2.1l-1.1-1.9z" display="inline" class="st76" fill="#eccdb9"/>
					<path id="path30600" d="m1161.4 632.9s-0.8 9.2-0.3 20-1.2 16.3-1 19 3.3 3.1 4.7 2.5 2.5-19.3 2.7-20.7 0-1.5 0-3.4-1-17.5-2.2-17.5c-1.3-0.1-3.9 0.1-3.9 0.1z" display="inline" class="st88" fill="#11253e"/>
				</g>
				<path id="path30603" d="m1142.1 710.9s20.4-1.8 20.7-0.6c0.3 1.3 1.4 5.4 0.8 7.5-0.5 2.1-2.8 8.1-3.1 9.9s-1 7.1-0.9 9.8-7.1 3.3-7.4 3.3c-0.4 0-8.8-0.2-8.9-0.6s-0.7-5-0.9-7.6-1.5-11.7-1.6-12c-0.5-2 0.1-5.6 0.1-5.6z" class="st85" fill="#261b33"/>
				<path id="path30605" d="m1163 689.4c1.8-4.5 3-18.2 3-20.3-0.7-3-3.8-3-3.8-3l-20.3 8s-1 0.5-1.5 2.1c-0.6 1.8-0.4 2.7-0.4 2.7l1.3 16.5s2 11.5 0.6 15.8c-0.2 0.7 0 1.2 0.4 1.5 0.1 0.4 0.3 0.7 0.6 0.8 13.1 4.5 19.4-1.8 20-2s-0.1-5.6-0.7-8c-0.6-2.6 0.6-12.6 0.8-14.1z" class="st84" fill="#38274b"/>
				<path id="path30607" d="m1146.2 654.6s0.3 0.8 0 1.3-1.3 1.7-1.4 1.8c-0.2 0.2-0.8 1-0.3 1.3s0.8 0.4 0.7 0.7c0 0.3-0.1 0.9-0.1 1.4s0 0.7 0.1 0.9 0.2 0.7 0.2 1-0.3 1.1 0.2 1.6c0.5 0.4 2.4 1.3 2.7 1.3 0.2 0 1.3-11.7 1.3-11.7z" class="st79" fill="#eccdb9"/>
				<path id="path30609" d="m1145.7 654.4s-0.1-9.8 11.6-6.1c1.2 0.5 4.4 2 4 8.4-0.1 0.9-0.5 3.5-0.4 5.1 0.2 1.6 0.4 2.7 0.6 3.1 0 0 1 2.8 0.6 4.3s-0.7 7.8-5.3 8.1-6.8-0.7-7.6-1.6c-0.7-0.8-3.3-3.3-3.5-4.4-0.2-1.2 0.6-4.9 1.6-6.8s0.6-4.3 0.5-5.1 0.2-3-2.1-5z"/>
				<path id="path30611" d="m1141.7 771.3s-0.8 1.2 0 1.5 5.5 0.6 7.1-0.2 3.4-2.2 3.6-3.4 0.5-0.5 0.5-0.5 2.1 1.5 1.1 4.7c-0.4 0.8-1 1.4-1.2 2.2s-0.7 1.9-0.9 2.1c-0.3 0-0.7 0.2-1.1-1.2s-0.9-2.3-3.1-2c-0.4 0.1-2.4 0.9-3 1.2-0.5 0.2-2.4 1.1-4.4-0.1-0.9-0.5-1.7-1.5-1.9-2.5-0.1-0.6-0.1-1.1 0.4-1.3 1-0.3 2.9-0.5 2.9-0.5z" class="st85" fill="#261b33"/>
				<path id="path30613" d="m1158.2 767.2s-0.3-0.7-0.5 0.5-2.1 2.6-3.6 3.4c-0.1 0.1-0.2 0.1-0.4 0.1 0 0.6-0.1 1.2-0.2 1.7 1.7-0.1 2.2 0.8 2.6 2 0.4 1.4 0.8 1.2 1.1 1.2 0.3-0.3 0.7-1.4 0.9-2.1s0.7-1.4 1.2-2.2c1-3.1-1.1-4.6-1.1-4.6z" class="st85" fill="#261b33"/>
				<g id="Brazo_izquierdo_x5F_Celebracion_2_" class="st1" display="none">
					<path id="path30615" d="m1140.9 638.9c0.1-0.3 0.3-1.8 0.5-2.2s0.5-1.5 0.3-1.9-0.9-2-1.4-2.1-0.5 0.3-0.3 0.7 0.6 1.3 0.5 1.6-0.6 0.4-0.6 0.4-0.6-0.4-0.7-0.6-0.3-2.4-0.5-2.6-1.1-0.4-1.7 0.6-2 3-1.7 4 1.1 2.3 1.6 3c0.6 0.6 3.6 1.5 3.6 1.5l0.7-2.1z" display="inline" class="st76" fill="#eccdb9"/>
					<path id="path30617" d="m1145.8 679.8c0.5-0.7-0.3-3.9-0.9-6.3-0.2-0.7-0.4-1.4-0.5-1.9-0.5-2.1-2.1-6.4-2.2-7.4-0.1-0.8-0.3-1.8-0.4-2.8-0.5-2.8-1-5.9-1-5.9-0.2-2.7-0.5-4.9-0.4-5.6 0.1-0.9-0.5-4.8 0.8-7.3 0.4-0.9 1.1-1.9 0.2-2.8-1-0.8-2.6-1.6-3.8-0.5-0.4-0.1-2.5 5.9-2.5 7.2 0.1 1.3-0.8 8-0.8 8s-0.2 2.2 0.3 4.9c0.5 2.8 1.5 8 1.9 9.8 0.4 1.7 1.6 12 6.5 12.3-0.2 0.2 2.3-0.1 2.8-1.7z" display="inline" class="st88" fill="#11253e"/>
				</g>
			</g>
			<g id="Brazoo_Izquierdo">
				<g id="Brazo_izquierdo_x5F_Celebracion_9_">
					<path id="path30621" d="m1137 716.6c-0.2 0.2-0.7 1.7-1 2s-0.8 1.3-0.7 1.8c0.1 0.4 0.4 2.1 0.9 2.3s0.5-0.1 0.4-0.6c-0.1-0.4-0.3-1.4-0.1-1.7 0.2-0.2 0.7-0.2 0.7-0.2s0.5 0.5 0.5 0.7-0.3 2.4-0.1 2.6c0.1 0.3 1 0.6 1.8-0.2s2.7-2.5 2.6-3.5c-0.1-1.1-0.5-2.5-0.9-3.3s-3.2-2.2-3.2-2.2l-1.2 1.8z" class="st79" fill="#eccdb9"/>
					<path id="path30623" d="m1144.8 674.5c4.3 1.1 3.5 11.7 3.6 13.5 0 1.8-0.3 7.2-0.4 10s-0.8 4.9-0.8 4.9-2.4 6.4-2.6 7.6-3.7 6.6-4 6.4c-1.4 0.9-2.8-0.3-3.6-1.3-0.7-1 0.1-1.9 0.8-2.7 1.8-2.1 2.1-6.1 2.4-6.9 0.2-0.6 0.4-2.9 0.8-5.5 0 0 0.1-3.1 0.3-5.9 0.1-1 0.1-2 0.2-2.8 0.1-1-0.5-5.5-0.5-7.7v-2c-0.1-2.5-0.1-5.7 0.5-6.3 0-0.1 1.2-1.7 3.3-1.3z" class="st83" fill="#11253e"/>
				</g>
			</g>
		</g>
  </g>

  <g id="persona6">
    <g transform="matrix(1.3768 0 0 1.3768 -472.96 -180.33)">
			<g id="Brazo_derecho_3_">
				<path id="path30628" d="m1371.6 585c-0.2 0.2-0.9 1.6-1.2 1.9s-0.9 1.2-0.9 1.7 0.2 2.2 0.7 2.4 0.5-0.1 0.5-0.5c0-0.5-0.1-1.5 0.1-1.7s0.7-0.2 0.7-0.2 0.4 0.6 0.5 0.8c0 0.2-0.6 2.3-0.4 2.6s0.9 0.7 1.8 0c0.9-0.8 2.9-2.1 3-3.2s-0.2-2.6-0.5-3.3c-0.3-0.8-2.9-2.6-2.9-2.6l-1.4 1.7z" class="st79" fill="#eccdb9"/>
				<path id="path30630" d="m1371.3 585.4s0.7-9.2 2.8-19.8c2.1-10.7 1.4-16.2 2-18.9s3.7-2.6 5-1.8-0.5 19.5-0.6 20.9-0.2 1.5-0.5 3.4-3.7 17.1-4.9 17c-1.2-0.2-3.8-0.8-3.8-0.8z" class="st83" fill="#11253e"/>
			</g>
			<g id="Cuerpo_3_">
				<path id="path30633" d="m1356.8 572.7s0.2 0 0 0c-0.4-2.8-3.1-4.9-3.7-5.8-0.8-1-0.7-1.8 0.5-3.4 1-1.3 1.7-3.7 1.9-5.4v-0.1l-0.1-1.8c0.2 0.4 0.4 0.7 0.5 1 0.7 1.6 0.9 14.9 0.9 15.5z" class="st84" fill="#38274b"/>
				<path id="path30635" d="m1362.2 646.8s-1.5-0.3-2-0.1-0.6 0.4-0.7 0.6c0 0.2 0.3 1.5 0.5 1.5s2.8-1.1 2.8-1.1z" class="st85" fill="#261b33"/>
				<path id="path30637" d="m1373.8 615.9s0.6 4.5 0.4 7.6c-0.3 3-0.5 5.4-0.9 6.7-0.3 1.3-0.8 5.4-0.5 7.7s0.6 6.2 0.7 7-0.4 2.7-0.5 2.6-3.2 1.3-3.2 1.3-1.4-1.2-1.8-2c-0.4-0.9-1.5-13.7-1.3-15.2s1.6-7.4 1.6-9-0.7-4.8-0.7-4.8z" class="st86" fill="#d1b5a4"/>
				<path id="path30639" d="m1359.2 617s0.7 6.7 1.1 9.6c0.5 2.9 0.9 5.9 1.1 7.5s0.9 3.9 0.9 5.5c0 1.7 0.1 3.2 0.1 4s0.4 2.2-0.2 3.2-2 1.3-2.9 1.6-1.8 0.1-2 0.3-1.1 0.3-1 0.7 0.1 1.9 1.8 2.1 8.6-0.7 9.1-1 1-2.6 1-2.8 0.1-1.5 0.1-1.5-0.8-11-0.5-12.5 2.6-11.5-0.3-16.2-6.7-4.6-6.7-4.6z" class="st87" fill="#c2a898"/>
				<g id="Brazo_derecho_x5F_celebracion_3_" class="st1" display="none">
					<path id="path30641" d="m1377.1 510.7c-0.2-0.2-0.6-1.7-0.9-2.1s-0.7-1.3-0.6-1.8c0.1-0.4 0.5-2.1 1-2.3s0.5 0.2 0.4 0.6-0.3 1.4-0.1 1.7 0.6 0.3 0.6 0.3 0.5-0.5 0.6-0.7-0.2-2.4 0-2.6c0.2-0.3 1-0.6 1.8 0.3 0.7 0.9 2.6 2.5 2.5 3.6s-0.6 2.5-1 3.2-3.2 2.1-3.2 2.1l-1.1-1.9z" display="inline" class="st76" fill="#eccdb9"/>
					<path id="path30643" d="m1376.9 510.3s-0.8 9.2-0.3 20-1.2 16.3-1 19 3.3 3.1 4.7 2.5 2.5-19.3 2.7-20.7 0-1.5 0-3.4c0-2-1-17.5-2.2-17.5-1.3-0.1-3.9 0.1-3.9 0.1z" display="inline" class="st88" fill="#11253e"/>
				</g>
				<path id="path30646" d="m1357.6 588.3s20.4-1.8 20.7-0.6c0.3 1.3 1.4 5.4 0.8 7.5s-2.8 8.1-3.1 9.9-1 7.1-0.9 9.8-7.1 3.3-7.4 3.3-8.8-0.2-8.9-0.6-0.7-5-0.9-7.6-1.5-11.7-1.6-12c-0.5-2 0.1-5.6 0.1-5.6z" class="st85" fill="#261b33"/>
				<path id="path30648" d="m1378.5 566.8c1.8-4.5 3-18.2 3-20.3-0.7-3-3.8-3-3.8-3l-20.3 8s-1 0.5-1.5 2.1c-0.6 1.8-0.4 2.7-0.4 2.7l1.3 16.5s2 11.5 0.6 15.8c-0.2 0.7 0 1.2 0.4 1.5 0.1 0.4 0.3 0.7 0.6 0.8 13.1 4.5 19.4-1.8 20-2s-0.1-5.6-0.7-8c-0.6-2.5 0.6-12.6 0.8-14.1z" class="st84" fill="#38274b"/>
				<path id="path30650" d="m1361.7 532s0.3 0.8 0 1.3-1.3 1.7-1.4 1.8-0.8 1-0.3 1.3 0.8 0.4 0.7 0.7c0 0.3-0.1 0.9-0.1 1.4s0 0.7 0.1 0.9 0.2 0.7 0.2 1-0.3 1.1 0.2 1.6c0.5 0.4 2.4 1.3 2.7 1.3 0.2 0 1.3-11.7 1.3-11.7z" class="st79" fill="#eccdb9"/>
				<path id="path30652" d="m1361.2 531.8s-0.1-9.8 11.6-6.1c1.2 0.5 4.4 2 4 8.4-0.1 0.9-0.5 3.6-0.4 5.1 0.2 1.6 0.4 2.7 0.6 3.1 0 0 1 2.8 0.6 4.3s-0.7 7.8-5.3 8.1-6.8-0.7-7.6-1.6c-0.7-0.8-3.3-3.3-3.5-4.4-0.2-1.2 0.6-4.9 1.6-6.8s0.6-4.3 0.5-5.1c-0.2-0.9 0.2-3-2.1-5z"/>
				<path id="path30654" d="m1357.2 648.8s-0.8 1.2 0 1.5 5.5 0.6 7.1-0.2 3.4-2.2 3.6-3.4 0.5-0.5 0.5-0.5 2.1 1.5 1.1 4.7c-0.4 0.8-1 1.4-1.2 2.2s-0.7 1.9-0.9 2.1c-0.3 0-0.7 0.2-1.1-1.2s-0.9-2.3-3.1-2c-0.4 0.1-2.4 0.9-3 1.2-0.5 0.2-2.4 1.1-4.4-0.1-0.9-0.5-1.7-1.5-1.9-2.5-0.1-0.6-0.1-1.1 0.4-1.3 0.9-0.3 2.9-0.5 2.9-0.5z" class="st85" fill="#261b33"/>
				<path id="path30656" d="m1373.6 644.6s-0.3-0.7-0.5 0.5-2.1 2.6-3.6 3.4c-0.1 0.1-0.2 0.1-0.4 0.1 0 0.6-0.1 1.2-0.2 1.7 1.7-0.1 2.2 0.8 2.5 2 0.4 1.4 0.8 1.2 1.1 1.2 0.3-0.3 0.7-1.4 0.9-2.1 0.2-0.8 0.7-1.4 1.2-2.2 1.2-3-1-4.6-1-4.6z" class="st85" fill="#261b33"/>
				<g id="Brazo_izquierdo_x5F_Celebracion_5_" class="st1" display="none">
					<path id="path30658" d="m1356.4 516.3c0.1-0.3 0.3-1.8 0.5-2.2s0.5-1.5 0.3-1.9-0.9-2-1.4-2.1-0.5 0.3-0.3 0.7 0.6 1.3 0.5 1.6-0.6 0.4-0.6 0.4-0.6-0.4-0.7-0.6-0.3-2.4-0.5-2.6-1.1-0.4-1.7 0.6-2 3-1.7 4 1.1 2.3 1.6 3c0.6 0.6 3.6 1.5 3.6 1.5l0.7-2.1z" display="inline" class="st76" fill="#eccdb9"/>
					<path id="path30660" d="m1361.2 557.2c0.5-0.7-0.3-3.9-0.9-6.3-0.2-0.7-0.4-1.4-0.5-1.9-0.5-2.1-2.1-6.4-2.2-7.4-0.1-0.8-0.3-1.8-0.4-2.8-0.5-2.8-1-5.9-1-5.9-0.2-2.7-0.5-4.9-0.4-5.6 0.1-0.9-0.5-4.8 0.8-7.3 0.4-0.9 1.1-1.9 0.2-2.8-1-0.8-2.6-1.6-3.8-0.5-0.4-0.1-2.5 5.9-2.5 7.2 0.1 1.3-0.8 8-0.8 8s-0.2 2.2 0.3 4.9c0.5 2.8 1.5 8 1.9 9.8 0.4 1.7 1.6 12 6.5 12.3-0.1 0.2 2.4-0.1 2.8-1.7z" display="inline" class="st88" fill="#11253e"/>
				</g>
			</g>
			<g id="Brazo_izquierdo_4_">
				<path id="path30664" d="m1352.5 594c-0.2 0.2-0.7 1.7-1 2s-0.8 1.3-0.7 1.8c0.1 0.4 0.4 2.1 0.9 2.3s0.5-0.1 0.4-0.6c-0.1-0.4-0.3-1.4-0.1-1.7s0.7-0.2 0.7-0.2 0.5 0.5 0.5 0.7-0.3 2.4-0.1 2.6c0.1 0.3 1 0.6 1.8-0.2s2.7-2.5 2.6-3.5-0.5-2.5-0.9-3.3-3.2-2.2-3.2-2.2l-1.2 1.8z" class="st79" fill="#eccdb9"/>
				<path id="path30666" d="m1360.3 551.9c4.3 1.1 3.5 11.7 3.6 13.5 0 1.8-0.3 7.2-0.4 10s-0.8 4.9-0.8 4.9-2.4 6.4-2.6 7.6-3.7 6.6-4 6.4c-1.4 0.9-2.8-0.3-3.6-1.3-0.7-1 0.1-1.9 0.8-2.7 1.8-2.1 2.1-6.1 2.4-6.9 0.2-0.6 0.4-2.9 0.8-5.5 0 0 0.1-3.1 0.3-5.9 0.1-1 0.1-2 0.2-2.8 0.1-1-0.5-5.5-0.5-7.7v-2c-0.1-2.5-0.1-5.7 0.5-6.3 0-0.1 1.2-1.6 3.3-1.3z" class="st83" fill="#11253e"/>
			</g>
		</g>
  </g>

</g>
</svg>
