<svg xmlns="http://www.w3.org/2000/svg" xmlns:xlink="http://www.w3.org/1999/xlink" viewBox="420.731 1447.712 165.807 229.888">
  <defs>
    <style>
      .cls-1 {
        fill: url(#linear-gradient);
      }

      .cls-2 {
        fill: url(#linear-gradient-2);
      }

      .cls-3 {
        fill: url(#linear-gradient-4);
      }

      .cls-4 {
        fill: url(#linear-gradient-6);
      }

      .cls-5 {
        fill: #090e1f;
      }

      .cls-6 {
        fill: #182653;
      }

      .cls-7 {
        fill: #1c2e63;
      }

      .cls-8 {
        fill: #eccdb9;
      }

      .cls-9 {
        fill: #22366b;
      }

      .cls-10 {
        fill: #fff;
      }

      .cls-11 {
        fill: #261b33;
      }

      .cls-12 {
        fill: #d1b5a4;
      }

      .cls-13 {
        fill: #c2a898;
      }

      .cls-14 {
        fill: #11253e;
      }

      .cls-15 {
        fill: #38274b;
      }
    </style>
    <linearGradient id="linear-gradient" y1="0.488" x2="1" y2="0.488" gradientUnits="objectBoundingBox">
      <stop offset="0" stop-color="#000f2a"/>
      <stop offset="0.149" stop-color="#001333"/>
      <stop offset="0.391" stop-color="#001f4b"/>
      <stop offset="0.692" stop-color="#003271"/>
      <stop offset="0.924" stop-color="#004394"/>
    </linearGradient>
    <linearGradient id="linear-gradient-2" y1="0.5" x2="1.001" y2="0.5" gradientUnits="objectBoundingBox">
      <stop offset="0" stop-color="#4d00b3"/>
      <stop offset="0.136" stop-color="#4611ba"/>
      <stop offset="0.406" stop-color="#323fcd"/>
      <stop offset="0.783" stop-color="#1387ec"/>
      <stop offset="1" stop-color="#00b4ff"/>
    </linearGradient>
    <linearGradient id="linear-gradient-4" x1="0" y1="0.5" x2="1" y2="0.5" xlink:href="#linear-gradient-2"/>
    <linearGradient id="linear-gradient-6" x1="0" y1="0.5" x2="1.001" y2="0.5" xlink:href="#linear-gradient-2"/>
  </defs>
  <g id="Group_210" data-name="Group 210" transform="translate(52 35)">
    <g id="Group_27" data-name="Group 27" transform="translate(368.756 1412.72)">
      <g id="Group_21" data-name="Group 21" transform="translate(-0.025 119.562)">
        <path id="Path_45" data-name="Path 45" class="cls-1" d="M165.754,161.9a1.686,1.686,0,0,0-.845-1.479L83.775,113.513a1.621,1.621,0,0,0-1.69,0L.845,160.312A1.6,1.6,0,0,0,0,161.791v13.523a1.686,1.686,0,0,0,.845,1.479l79.76,46.06a4.386,4.386,0,0,0,4.543,0l79.76-46.06a1.6,1.6,0,0,0,.845-1.479V162s0,0,0-.106Z" transform="translate(0.026 -113.169)"/>
        <path id="Path_46" data-name="Path 46" class="cls-2" d="M.847,160.318,81.98,113.413a1.621,1.621,0,0,1,1.69,0L164.8,160.318a1.691,1.691,0,0,1,0,2.958l-79.76,46.06a4.386,4.386,0,0,1-4.543,0L.847,163.276A1.69,1.69,0,0,1,.847,160.318Z" transform="translate(0.025 -113.175)"/>
      </g>
      <g id="Group_22" data-name="Group 22" transform="translate(-0.025 96.954)">
        <path id="Path_47" data-name="Path 47" class="cls-1" d="M165.754,140.5a1.686,1.686,0,0,0-.845-1.479L83.775,92.113a1.621,1.621,0,0,0-1.69,0L.845,138.912A1.6,1.6,0,0,0,0,140.391v13.523a1.686,1.686,0,0,0,.845,1.479l79.76,46.06a4.386,4.386,0,0,0,4.543,0l79.76-46.06a1.6,1.6,0,0,0,.845-1.479V140.6s0,0,0-.106Z" transform="translate(0.026 -91.769)"/>
        <path id="Path_48" data-name="Path 48" class="cls-3" d="M.847,138.918,82.086,92.013a1.621,1.621,0,0,1,1.69,0l81.134,46.905a1.691,1.691,0,0,1,0,2.958l-79.76,46.06a4.386,4.386,0,0,1-4.543,0L.847,141.876A1.69,1.69,0,0,1,.847,138.918Z" transform="translate(0.025 -91.775)"/>
      </g>
      <g id="Group_23" data-name="Group 23" transform="translate(-0.025 76.248)">
        <path id="Path_49" data-name="Path 49" class="cls-1" d="M165.754,120.9a1.686,1.686,0,0,0-.845-1.479L83.775,72.513a1.621,1.621,0,0,0-1.69,0L.845,119.418A1.6,1.6,0,0,0,0,120.9v13.522A1.686,1.686,0,0,0,.845,135.9l79.76,46.06a4.386,4.386,0,0,0,4.543,0l79.76-46.06a1.6,1.6,0,0,0,.845-1.479V121.108s0-.106,0-.211Z" transform="translate(0.026 -72.169)"/>
        <path id="Path_50" data-name="Path 50" class="cls-4" d="M.847,119.318,81.98,72.413a1.621,1.621,0,0,1,1.69,0L164.8,119.318a1.691,1.691,0,0,1,0,2.958l-79.76,46.06a4.386,4.386,0,0,1-4.543,0L.847,122.276A1.691,1.691,0,0,1,.847,119.318Z" transform="translate(0.025 -72.175)"/>
      </g>
      <g id="Group_25" data-name="Group 25" transform="translate(49.772 4.335)">
        <path id="Path_51" data-name="Path 51" class="cls-5" d="M68.436,122.133s-4.331-1.162-4.965-.317c-.634.739-2.218,2.43-.634,4.543,1.69,2.113,3.8,2.113,5.388,3.381,1.585,1.373,2.218,1.373,2.958,2.218s4.754,2.641,5.7,2.007S79.211,132.7,79,130.69c-.317-1.9-3.064-4.437-3.275-4.543S68.436,122.133,68.436,122.133Z" transform="translate(-46.264 2.522)"/>
        <path id="Path_52" data-name="Path 52" class="cls-6" d="M78.36,70.5s-.739,6.127-.951,12.466-.317,8.663.528,14.156,1.8,7.4,1.268,13.417c-.528,6.127-.845,7.923-1.268,10.776s.528,8.98.423,9.93c-.106,1.056-4.12,1.8-5.493.951s-5.916-5.282-5.7-6.233c.211-1.056,2.113-2.958,2.113-8.029-.106-5.071-.845-11.726-.317-12.677-.211-.739-.211-2.324-.845-3.381a18.627,18.627,0,0,1-1.585-6.233A16.764,16.764,0,0,0,66,92.474s.634-9.825.845-10.776,2.324-8.029,2.324-8.029Z" transform="translate(-46.046 -0.356)"/>
        <path id="Path_53" data-name="Path 53" class="cls-5" d="M53.227,133.336s-4.014-1.373-5.071-.211-2.113,3.909,1.162,5.81c2.113,1.373,4.754,1.8,5.071,2.113.317.423,1.373.951,2.218,1.69s4.226,1.162,5.282.74,2.324-1.056,2.324-2.535-.317-4.12-.317-4.12Z" transform="translate(-47.112 3.151)"/>
        <path id="Path_54" data-name="Path 54" class="cls-7" d="M63.916,141.968a6.121,6.121,0,0,1-6.55.634c-3.8-1.8-4.86-2.43-4.965-3.381A16.127,16.127,0,0,1,53.351,135c.317-1.056,1.8-5.493,1.9-8.663s.634-20.495.211-25.037c-.423-4.437-.74-13.945-.634-15.635.106-1.8,2.324-10.881,2.324-10.881l1.479-.951L70.888,73.3v.739a42.211,42.211,0,0,1-1.585,6.55c-.634,2.43-2.852,17.748-3.169,18.8a6.347,6.347,0,0,0-.317,2.43s1.268,7.923.951,12.466a94.174,94.174,0,0,1-2.007,12.36c-.528,2.43-.423,13.628-.423,14.473a4.473,4.473,0,0,0-.528.74" transform="translate(-46.814 -0.198)"/>
        <g id="Group_24" data-name="Group 24" transform="translate(10.551)">
          <path id="Path_55" data-name="Path 55" class="cls-8" d="M70.728,23.541S64.812,7.906,62.91,7.8a8.017,8.017,0,0,0-3.275.528s-1.585,1.8-1.479,2.43.845,1.162.528,1.9S57.1,14.773,57.1,15.3s0,1.268.74,1.162c0,.423.106,1.373.106,1.8a1.231,1.231,0,0,0,.106.951,3.526,3.526,0,0,1,.528,1.268c0,.317-.423,1.056.106,1.69.423.634.845.634.845.634s2.324.317,2.852,0c.317.106,1.056.106,1.162.845l.423,2.958v.951l4.754.211s2.852-2.324,2.852-2.43C71.362,25.443,70.728,23.541,70.728,23.541Z" transform="translate(-57.1 -3.895)"/>
          <path id="Path_56" data-name="Path 56" d="M66.184,5.051c-.106,0-3.592-.74-4.543-.845C60.585,3.994,59,3.994,59,5.368c.106,1.373.106,2.43.951,3.381,1.162,1.268,1.9,1.8,1.8,2.113a2.566,2.566,0,0,0,.317,2.535c.106.423-.528.845-.528,1.69v2.219c.106.106.528.106.74.106s.317-1.8.634-2.113,1.479-1.056,2.007.317c.634,1.268.317,3.7.634,4.543s1.162,3.592,1.8,3.8a3.033,3.033,0,0,0,2.535-.211c.634-.423,6.867-3.7,6.444-10.564-.106-1.268-2.113-7.818-7.5-7.818" transform="translate(-56.993 -4.103)"/>
        </g>
        <path id="Path_57" data-name="Path 57" class="cls-6" d="M75.8,21.5s3.8-.423,4.965,6.867c.211,1.268,1.268,12.994,1.162,13.311s.317,5.493,0,6.233-4.648,6.972-4.648,6.972-.317-18.91-.317-19.121S75.8,21.5,75.8,21.5Z" transform="translate(-45.493 -3.122)"/>
        <path id="Path_58" data-name="Path 58" class="cls-9" d="M61.635,28.156a6.585,6.585,0,0,1-1.268.951c-1.8.951-6.972,4.014-6.867,4.331.211.423,4.543-.528,5.282,6.867.634,7.289.634,16.586.634,16.586s-.211,11.621-.423,13.522-1.268,6.55-1.056,6.55,18.487,0,20.283-1.9.528-2.218.951-2.324a10.523,10.523,0,0,0,1.162-.423L79.171,54.883s.211-12.888.528-15.318,3.486-14.9-2.535-18.065a32.344,32.344,0,0,0-5.493,2.007,4.517,4.517,0,0,1-4.014,3.381c-3.064-.106-3.381.211-4.014-.528A14.526,14.526,0,0,0,61.635,28.156Z" transform="translate(-46.752 -3.122)"/>
        <path id="Path_59" data-name="Path 59" class="cls-8" d="M56.866,76.932a29.922,29.922,0,0,0-.106,3.486,8.416,8.416,0,0,0,.106,1.162,12.2,12.2,0,0,1,.845,1.585c.106.211.106.845-.423.74a12.094,12.094,0,0,1-1.585-2.43c-.211-.423.74,1.479.951,1.8s.845.951.74,1.162-.74.528-1.268-.317c-.634-.845-1.268-1.9-1.268-1.9s1.268,2.007,1.585,2.747c.106.211.211.739-.423.739-.317,0-1.373-1.9-1.373-1.9s.634,1.268.423,1.479c-.106.106-.528.317-1.585-1.268S51.795,82,51.9,80.524a10.453,10.453,0,0,1,1.268-4.014c.317-.317,3.169-.106,3.169-.106Z" transform="translate(-46.843 -0.027)"/>
        <path id="Path_60" data-name="Path 60" class="cls-10" d="M52.005,75.251s-.211.845,0,1.162,2.324.317,3.064.74a2.746,2.746,0,0,0,2.324-.211,5.1,5.1,0,0,0,.211-2.535c-.106-.317-5.6.211-5.6.211Z" transform="translate(-46.841 -0.142)"/>
        <path id="Path_61" data-name="Path 61" class="cls-6" d="M51.945,73.592s-.211,4.226,0,4.226a9.487,9.487,0,0,1,4.226-.106,1.624,1.624,0,0,0,2.007-1.056,47.59,47.59,0,0,0,1.373-8.98c0-2.852.528-22.925,0-25.037s.317-5.81-.845-7.289c-1.056-1.373-4.014-3.381-4.965-2.641S51.1,34.082,51.1,38.2,51.945,73.592,51.945,73.592Z" transform="translate(-46.887 -2.498)"/>
      </g>
      <g id="Group_26" data-name="Group 26" transform="translate(87.972 -0.008)">
        <path id="Path_62" data-name="Path 62" class="cls-11" d="M97.741,119.61a5.685,5.685,0,0,0-2.007-.106c-.528.211-.634.423-.634.634s.317,1.585.528,1.585,2.852-1.162,2.852-1.162Z" transform="translate(-82.604 6.748)"/>
        <path id="Path_63" data-name="Path 63" class="cls-12" d="M109.3,89.3a48.686,48.686,0,0,1,.423,7.818,65.859,65.859,0,0,1-.845,6.867,30.123,30.123,0,0,0-.528,7.923c.317,2.43.634,6.444.634,7.184a9.49,9.49,0,0,1-.528,2.747c-.106,0-3.381,1.268-3.381,1.268a10.152,10.152,0,0,1-1.9-2.113c-.423-.951-1.585-14.156-1.373-15.741s1.585-7.606,1.585-9.3a31.683,31.683,0,0,0-.74-4.965Z" transform="translate(-82.227 5.047)"/>
        <path id="Path_64" data-name="Path 64" class="cls-13" d="M94.758,90.626s.634,6.972,1.162,9.93c.528,3.064.845,6.127,1.162,7.712.211,1.69.951,4.014.951,5.7s.106,3.381.106,4.12.423,2.324-.211,3.275a6.023,6.023,0,0,1-2.958,1.69c-.951.317-1.8.106-2.113.317-.211.211-1.162.317-1.056.739a2.181,2.181,0,0,0,1.9,2.218,44.494,44.494,0,0,0,9.4-1.056c.528-.211,1.056-2.641,1.056-2.852s.106-1.479.106-1.479-.845-11.409-.528-12.994,2.641-11.832-.317-16.8S96.449,86.4,96.449,86.4Z" transform="translate(-82.79 4.884)"/>
        <path id="Path_65" data-name="Path 65" class="cls-11" d="M93.152,62.23s20.283-1.268,20.495,0a18.023,18.023,0,0,1,0,6.339c-.528,2.218-2.958,8.768-3.275,10.564s.739,7.923.845,10.67-7.289,3.381-7.712,3.381-9.085-.211-9.3-.634c-.106-.423-.74-5.177-.951-7.923,0-2.535-2.43-12.783-2.535-13.1-.106-.423-.423-5.177-.423-5.177Z" transform="translate(-82.875 3.488)"/>
        <path id="Path_66" data-name="Path 66" class="cls-8" d="M88.267,66.151c-.317,0-1.69.74-2.219.845a3.15,3.15,0,0,0-1.8.845c-.211.423-1.162,1.9-.951,2.43s.528.211.74-.106A3.815,3.815,0,0,1,85.2,68.792a1.106,1.106,0,0,1,.634.317,3.639,3.639,0,0,1-.106.951c-.106.211-1.9,1.585-1.9,1.9-.106.317.317,1.162,1.479,1.056s3.8,0,4.437-.845a8.518,8.518,0,0,0,1.585-3.064c.211-.845-.845-3.909-.845-3.909l-2.218.528Z" transform="translate(-83.271 3.687)"/>
        <path id="Path_67" data-name="Path 67" class="cls-14" d="M112.879,18.325a2.448,2.448,0,0,1,3.7,1.056,7.6,7.6,0,0,1,.845,3.7c0,1.69-.423,7.923-.74,9.825-.317,1.479-2.219,10.247-2.43,11.3s-1.373,7.078-1.479,7.4-1.373.845-1.373.634,1.056-16.586,1.056-16.8.528-12.043.528-12.043Z" transform="translate(-81.684 1.016)"/>
        <path id="Path_68" data-name="Path 68" class="cls-15" d="M92.8,26.54l21.129-8.24a4.26,4.26,0,0,1,3.909,3.169c-.106,2.113-1.268,16.269-3.169,21.023-.211,1.585-1.373,12.043-.845,14.473.634,2.43,1.268,8.029.634,8.24-.528.211-7.184,6.761-20.706,2.113-.951-.317-.739-2.747-.739-2.747L95.23,54.113l.74-6.55S94.7,30.026,94.49,29.6A24.812,24.812,0,0,0,92.8,26.54Z" transform="translate(-82.733 1.041)"/>
        <path id="Path_69" data-name="Path 69" class="cls-14" d="M91.285,27.379a8.93,8.93,0,0,0,0,4.86,14.475,14.475,0,0,1-2.113,6.444c-1.268,1.69-1.373,2.43-.528,3.486.739,1.056,4.12,4.12,3.486,8.029-.739,3.909-.739,7.712-1.056,8.557s-.528,4.965-2.218,7.289c-.634.845-1.479,1.8-.74,2.747.845,1.056,2.324,2.113,3.8,1.162.423.211,3.7-5.493,3.909-6.761s2.43-8.029,2.43-8.029a20.454,20.454,0,0,0,.634-5.071c0-2.852.106-8.451,0-10.353-.106-1.8.739-12.994-4.543-13.839C93.081,25.9,91.5,26.639,91.285,27.379Z" transform="translate(-83.014 1.47)"/>
        <path id="Path_70" data-name="Path 70" class="cls-8" d="M97.207,7.023a1.889,1.889,0,0,1,0,1.373c-.317.528-1.373,1.69-1.479,1.9-.211.211-.845,1.056-.317,1.373s.739.423.739.739-.106.845-.106,1.479a2.085,2.085,0,0,0,.106.951,3.084,3.084,0,0,1,.211.951c0,.317-.317,1.162.211,1.585a13.176,13.176,0,0,0,2.747,1.373c.211,0,1.373-12.149,1.373-12.149Z" transform="translate(-82.598 0.381)"/>
        <path id="Path_71" data-name="Path 71" d="M96.5,7.184S96.4-2.958,108.545.846c1.268.528,4.648,2.113,4.12,8.768a34.412,34.412,0,0,0-.423,5.282,9.169,9.169,0,0,0,.634,3.169s.951,2.958.634,4.437c-.423,1.585-.74,8.134-5.493,8.346-4.754.317-7.078-.74-7.818-1.585s-3.486-3.381-3.7-4.543.634-5.071,1.585-7.078a9.908,9.908,0,0,0,.528-5.282A5.807,5.807,0,0,0,96.5,7.184Z" transform="translate(-82.526 0.008)"/>
        <path id="Path_72" data-name="Path 72" class="cls-11" d="M92.8,121.653s-.845,1.268,0,1.585,5.7.634,7.289-.211c1.585-.739,3.592-2.218,3.8-3.486s.528-.528.528-.528,2.219,1.585,1.056,4.86a25.2,25.2,0,0,0-1.268,2.324,9.161,9.161,0,0,1-.951,2.218c-.317,0-.74.211-1.162-1.268s-.951-2.43-3.275-2.007c-.423.106-2.43.951-3.169,1.162a5.071,5.071,0,0,1-4.543-.106,4.294,4.294,0,0,1-2.007-2.641c-.106-.634-.106-1.162.423-1.268A19.467,19.467,0,0,1,92.8,121.653Z" transform="translate(-82.945 6.712)"/>
        <path id="Path_73" data-name="Path 73" class="cls-11" d="M108.965,117.511s-.317-.74-.528.528-2.113,2.747-3.8,3.486c-.106,0-.211.106-.423.106a10.408,10.408,0,0,1-.211,1.8c1.8-.106,2.219.739,2.641,2.113.423,1.479.739,1.268,1.162,1.268a6.3,6.3,0,0,0,.951-2.218,8.433,8.433,0,0,1,1.268-2.324A3.842,3.842,0,0,0,108.965,117.511Z" transform="translate(-82.101 6.627)"/>
      </g>
    </g>
  </g>
</svg>
