<svg xmlns="http://www.w3.org/2000/svg" viewBox="1245.7 2837.369 61.4 61.4">
  <defs>
    <style>
      .cls-1 {
        fill: #00e7ff;
      }

      .cls-2 {
        fill: #fff;
      }
    </style>
  </defs>
  <g id="Icono_cryptomonedas" data-name="Icono cryptomonedas" transform="translate(52 35)">
    <g id="Group_46" data-name="Group 46" transform="translate(1193.7 2802.369)">
      <g id="Group_43" data-name="Group 43">
        <circle id="Ellipse_21" data-name="Ellipse 21" class="cls-1" cx="30.7" cy="30.7" r="30.7"/>
      </g>
      <g id="Group_44" data-name="Group 44">
        <circle id="Ellipse_22" data-name="Ellipse 22" class="cls-1" cx="30.7" cy="30.7" r="30.7"/>
      </g>
      <g id="Group_45" data-name="Group 45" transform="translate(5.384 5.384)">
        <path id="Path_125" data-name="Path 125" class="cls-2" d="M59.516,84.832A25.316,25.316,0,1,1,84.832,59.516,25.337,25.337,0,0,1,59.516,84.832Zm0-47.8A22.482,22.482,0,1,0,82,59.516,22.505,22.505,0,0,0,59.516,37.034Z" transform="translate(-34.2 -34.2)"/>
      </g>
      <path id="Path_126" data-name="Path 126" class="cls-2" d="M110.242,124.69a9.237,9.237,0,0,0-10.5-.614c-.708.394-3.039,1.511-5.6,7.919-3.5-2.519-6.423-3.952-11.241-3.054-7.431,1.574-5.983,7.321-5.573,8.643.787,2.944,4.613,8.25,9.352,7.856a10.348,10.348,0,0,0,8.753-6.5,13.5,13.5,0,0,0-4.078-2.692c-2.125,2.645-3.432,3.227-4.739,3.7-2.094.677-4.928.236-4.881-3.1.126-3.164,6.219-2.55,9.241-1.134a21.631,21.631,0,0,1,4.566,2.629c.9.6,1.842,1.149,1.842,1.149,5.573,3.2,12.737,1.244,15.177-1.936C115.72,133.585,113.627,127.445,110.242,124.69Zm-2.881,9.808c-1.338,1.149-4.707,2.472-8.565-.787a6.633,6.633,0,0,1,5.9-3.936C108.7,130,109.36,132.892,107.361,134.5Z" transform="translate(-64.821 -103.389)"/>
    </g>
  </g>
</svg>
