<svg xmlns="http://www.w3.org/2000/svg" viewBox="268.558 2945.782 25.987 21.875">
  <defs>
    <style>
      .cls-1 {
        fill: #00d3ff;
      }
    </style>
  </defs>
  <path id="Icono_Vimeo" data-name="Icono Vimeo" class="cls-1" d="M24.963,1.1A3.668,3.668,0,0,0,22.257.027c-3.294-.108-5.623,1.647-6.929,5.21a.536.536,0,0,0,.108.539.523.523,0,0,0,.527.15,4.182,4.182,0,0,1,1.1-.156,1.81,1.81,0,0,1,1.437.509,1.61,1.61,0,0,1,.1,1.437,20.175,20.175,0,0,1-1.886,3.467c-1.162,1.844-1.809,2.671-1.994,2.671-.617,0-2.851-9.893-2.91-10.109C11.166,1.476,10.842.338,8.764.338c-1.587,0-5.12,2.9-8.025,5.42C.56,5.913.41,6.045.3,6.141a.686.686,0,0,0-.1.946l.539.695a.689.689,0,0,0,.946.138l.03-.024a6.138,6.138,0,0,1,2.5-1.335c.731-.036,1.359,1.1,2.114,3.809C7.764,15.627,9.944,21.9,12.178,21.9c2.336,0,5.126-1.982,8.731-6.671,3.264-4.246,5.012-7.611,5.12-10.061h0A5.485,5.485,0,0,0,24.963,1.1Z" transform="translate(268.503 2945.76)"/>
</svg>
