<svg xmlns="http://www.w3.org/2000/svg" viewBox="302.661 2943.147 22.523 24.509">
  <defs>
    <style>
      .cls-1 {
        fill: #00d3ff;
      }
    </style>
  </defs>
  <g id="Viuli" transform="translate(302.661 2943.147)">
    <path id="Path_94" data-name="Path 94" class="cls-1" d="M12.378,31.4h0a4.5,4.5,0,0,1-5.861-2.427L.368,14.129A4.5,4.5,0,0,1,2.8,8.268h0A4.5,4.5,0,0,1,8.656,10.7L14.8,25.537A4.505,4.505,0,0,1,12.378,31.4Z" transform="translate(-0.029 -7.228)"/>
    <path id="Path_95" data-name="Path 95" class="cls-1" d="M137.007,13.539h0a4.5,4.5,0,0,1-5.861-2.427l-1.978-4.782A4.5,4.5,0,0,1,131.6.468h0A4.5,4.5,0,0,1,137.456,2.9l1.978,4.782A4.5,4.5,0,0,1,137.007,13.539Z" transform="translate(-117.251 -0.129)"/>
  </g>
</svg>
